<svg xmlns="http://www.w3.org/2000/svg" xmlns:xlink="http://www.w3.org/1999/xlink" width="150" zoomAndPan="magnify" viewBox="0 0 112.5 112.499997" height="150" preserveAspectRatio="xMidYMid meet" version="1.0"><defs><clipPath id="7940e75a60"><path d="M 19.933594 29 L 92.363281 29 L 92.363281 83.425781 L 19.933594 83.425781 Z M 19.933594 29 " clip-rule="nonzero"/></clipPath></defs><path fill="#ffffff" d="M 91.742188 82.738281 L 26.46875 82.738281 L 27.464844 77.316406 L 20.539062 77.316406 C 32.050781 62.574219 35.339844 34.5625 35.339844 34.5625 L 35.484375 33.421875 L 87.933594 33.421875 Z M 91.742188 82.738281 " fill-opacity="1" fill-rule="nonzero"/><path fill="#0973dc" d="M 89.851562 33.160156 L 88.121094 40.792969 C 87.917969 41.644531 87.210938 42.25 86.402344 42.25 L 38.222656 42.25 C 37.128906 42.25 36.292969 41.183594 36.480469 40.011719 L 37.691406 32.382812 C 37.835938 31.460938 38.570312 30.796875 39.4375 30.796875 L 88.132812 30.796875 C 89.273438 30.796875 90.125 31.964844 89.851562 33.160156 Z M 89.851562 33.160156 " fill-opacity="1" fill-rule="nonzero"/><g clip-path="url(#7940e75a60)"><path fill="#000000" d="M 68.992188 61.304688 L 75.066406 61.304688 L 75.066406 60.714844 L 69.179688 60.714844 L 71.761719 52.824219 L 78.109375 52.824219 L 78.109375 52.230469 L 71.949219 52.230469 L 73.898438 46.257812 L 73.335938 46.070312 L 71.316406 52.230469 L 62.3125 52.230469 L 64.261719 46.257812 L 63.699219 46.070312 L 61.679688 52.230469 L 52.203125 52.230469 L 54.148438 46.257812 L 53.585938 46.070312 L 51.566406 52.230469 L 43.1875 52.230469 L 45.132812 46.257812 L 44.570312 46.070312 L 42.550781 52.230469 L 36.609375 52.230469 L 36.609375 52.824219 L 42.351562 52.824219 L 39.769531 60.714844 L 33.59375 60.714844 L 33.59375 61.304688 L 39.609375 61.304688 L 37.070312 69.078125 L 30.246094 69.078125 L 30.246094 69.671875 L 36.867188 69.671875 L 35.441406 74.054688 L 36.003906 74.242188 L 37.503906 69.6875 L 45.882812 69.6875 L 44.457031 74.070312 L 45.019531 74.257812 L 46.503906 69.699219 L 55.996094 69.699219 L 54.566406 74.085938 L 55.128906 74.273438 L 56.617188 69.714844 L 65.617188 69.714844 L 64.1875 74.101562 L 64.75 74.289062 L 66.25 69.730469 L 71.71875 69.730469 L 71.71875 69.136719 L 66.4375 69.136719 Z M 62.140625 52.808594 L 71.140625 52.808594 L 68.558594 60.699219 L 59.558594 60.699219 Z M 52.027344 52.808594 L 61.507812 52.808594 L 58.925781 60.699219 L 49.445312 60.699219 Z M 43.011719 52.808594 L 51.394531 52.808594 L 48.8125 60.699219 L 40.429688 60.699219 Z M 46.085938 69.078125 L 37.703125 69.078125 L 40.242188 61.304688 L 48.625 61.304688 Z M 56.183594 69.078125 L 46.707031 69.078125 L 49.246094 61.304688 L 58.738281 61.304688 Z M 65.820312 69.078125 L 56.816406 69.078125 L 59.355469 61.304688 L 68.359375 61.304688 Z M 88.234375 33.4375 L 88.292969 33.117188 L 84.457031 33.117188 C 83.996094 31.242188 82.652344 29.859375 80.90625 29.484375 C 78.46875 28.949219 76.003906 30.550781 75.167969 33.117188 L 72.441406 33.117188 C 71.964844 31.273438 70.621094 29.886719 68.890625 29.511719 C 66.46875 28.976562 64 30.566406 63.164062 33.117188 L 60.367188 33.117188 C 59.890625 31.285156 58.5625 29.929688 56.832031 29.554688 C 54.410156 29.023438 51.972656 30.59375 51.121094 33.132812 L 48.40625 33.132812 C 47.917969 31.300781 46.589844 29.960938 44.875 29.585938 C 42.464844 29.050781 40.027344 30.621094 39.175781 33.132812 L 35.222656 33.132812 L 35.035156 34.546875 C 35.007812 34.820312 31.632812 62.617188 20.308594 77.128906 L 19.933594 77.605469 L 27.117188 77.605469 L 26.121094 83.042969 L 92.058594 83.042969 Z M 80.777344 30.058594 C 82.25 30.390625 83.402344 31.546875 83.835938 33.117188 L 75.785156 33.117188 C 76.59375 30.953125 78.699219 29.613281 80.777344 30.058594 Z M 68.761719 30.105469 C 70.234375 30.421875 71.371094 31.574219 71.820312 33.132812 L 63.800781 33.132812 C 64.605469 30.96875 66.699219 29.640625 68.761719 30.105469 Z M 56.703125 30.132812 C 58.160156 30.449219 59.300781 31.589844 59.746094 33.132812 L 51.742188 33.132812 C 52.5625 30.996094 54.652344 29.683594 56.703125 30.132812 Z M 44.746094 30.160156 C 46.1875 30.480469 47.328125 31.605469 47.789062 33.117188 L 39.8125 33.117188 C 40.632812 31.011719 42.710938 29.714844 44.746094 30.160156 Z M 35.628906 34.605469 L 35.742188 33.722656 L 39.003906 33.722656 C 39.003906 33.738281 38.988281 33.765625 38.988281 33.78125 C 38.6875 35.179688 38.886719 36.59375 39.550781 37.777344 C 40.230469 38.976562 41.296875 39.78125 42.566406 40.058594 L 42.695312 39.480469 C 41.601562 39.234375 40.660156 38.527344 40.070312 37.476562 C 39.480469 36.421875 39.292969 35.152344 39.566406 33.898438 C 39.582031 33.824219 39.59375 33.765625 39.609375 33.710938 L 50.945312 33.710938 C 50.945312 33.722656 50.945312 33.722656 50.933594 33.738281 C 50.628906 35.136719 50.832031 36.550781 51.496094 37.734375 C 52.171875 38.933594 53.242188 39.738281 54.511719 40.027344 L 54.640625 39.449219 C 53.527344 39.207031 52.605469 38.5 52.015625 37.460938 C 51.421875 36.40625 51.234375 35.136719 51.507812 33.882812 C 51.523438 33.824219 51.539062 33.78125 51.554688 33.722656 L 62.992188 33.722656 C 62.355469 36.609375 63.972656 39.4375 66.582031 40 L 66.714844 39.421875 C 64.417969 38.917969 63.019531 36.421875 63.582031 33.855469 C 63.597656 33.8125 63.613281 33.765625 63.613281 33.722656 L 74.992188 33.722656 C 74.703125 35.109375 74.90625 36.507812 75.570312 37.691406 C 76.25 38.886719 77.316406 39.695312 78.585938 39.96875 L 78.714844 39.394531 C 77.605469 39.148438 76.679688 38.441406 76.089844 37.386719 C 75.5 36.335938 75.3125 35.066406 75.585938 33.8125 C 75.585938 33.78125 75.597656 33.753906 75.613281 33.722656 L 87.585938 33.722656 C 87.109375 36.132812 86.144531 39.695312 84.945312 43.765625 L 34.070312 43.765625 C 35.179688 38.398438 35.628906 34.707031 35.628906 34.605469 Z M 21.144531 77.011719 C 28.082031 67.824219 31.976562 53.746094 33.941406 44.355469 L 84.757812 44.355469 C 80.894531 57.308594 74.761719 74.9375 74.042969 77.011719 Z M 78.671875 82.4375 L 26.828125 82.4375 L 27.707031 77.605469 L 74.460938 77.605469 L 74.53125 77.402344 C 74.632812 77.128906 82.074219 55.851562 86.042969 42.0625 Z M 79.277344 82.4375 L 87.457031 37.71875 L 85.539062 82.4375 Z M 88.019531 38.414062 L 91.410156 82.4375 L 86.144531 82.4375 Z M 88.019531 38.414062 " fill-opacity="1" fill-rule="nonzero"/></g></svg>