<svg xmlns="http://www.w3.org/2000/svg" xmlns:xlink="http://www.w3.org/1999/xlink" width="150" zoomAndPan="magnify" viewBox="0 0 112.5 112.499997" height="150" preserveAspectRatio="xMidYMid meet" version="1.0"><defs><clipPath id="e494160116"><path d="M 12.449219 40 L 74 40 L 74 64 L 12.449219 64 Z M 12.449219 40 " clip-rule="nonzero"/></clipPath><clipPath id="8cd066da75"><path d="M 18 59 L 68 59 L 68 87.621094 L 18 87.621094 Z M 18 59 " clip-rule="nonzero"/></clipPath><clipPath id="6c1ec5e699"><path d="M 13 85 L 99 85 L 99 87.621094 L 13 87.621094 Z M 13 85 " clip-rule="nonzero"/></clipPath><clipPath id="eb1623a8f8"><path d="M 45 65 L 61 65 L 61 87.621094 L 45 87.621094 Z M 45 65 " clip-rule="nonzero"/></clipPath><clipPath id="978f7aa79f"><path d="M 70 24.152344 L 99.808594 24.152344 L 99.808594 54 L 70 54 Z M 70 24.152344 " clip-rule="nonzero"/></clipPath><clipPath id="f8c6ad7c35"><path d="M 72 77 L 98 77 L 98 87.621094 L 72 87.621094 Z M 72 77 " clip-rule="nonzero"/></clipPath></defs><g clip-path="url(#e494160116)"><path fill="#ffffff" d="M 70.386719 63.457031 C 69.8125 63.457031 69.246094 63.296875 68.746094 62.988281 L 43.03125 46.964844 L 17.316406 62.988281 C 15.859375 63.894531 13.9375 63.445312 13.03125 61.988281 C 12.589844 61.285156 12.453125 60.449219 12.640625 59.640625 C 12.832031 58.828125 13.324219 58.144531 14.027344 57.703125 L 41.386719 40.65625 C 42.40625 40.023438 43.71875 40.035156 44.726562 40.6875 L 72.039062 57.703125 C 73.492188 58.609375 73.941406 60.53125 73.035156 61.988281 C 72.597656 62.695312 71.910156 63.1875 71.101562 63.378906 C 70.859375 63.429688 70.621094 63.457031 70.386719 63.457031 Z M 16.792969 62.152344 L 16.796875 62.152344 Z M 43.03125 44.820312 C 43.210938 44.820312 43.390625 44.871094 43.550781 44.96875 L 69.789062 61.316406 C 70.046875 61.476562 70.351562 61.527344 70.648438 61.457031 C 70.945312 61.390625 71.199219 61.207031 71.359375 60.949219 C 71.691406 60.414062 71.53125 59.707031 70.992188 59.375 L 43.667969 42.347656 C 43.28125 42.097656 42.800781 42.09375 42.425781 42.328125 L 15.066406 59.375 C 14.804688 59.535156 14.625 59.785156 14.554688 60.082031 C 14.488281 60.382812 14.539062 60.6875 14.699219 60.945312 C 15.03125 61.480469 15.738281 61.644531 16.273438 61.3125 L 42.511719 44.964844 C 42.667969 44.871094 42.851562 44.820312 43.03125 44.820312 Z M 43.03125 44.820312 " fill-opacity="1" fill-rule="nonzero"/></g><g clip-path="url(#8cd066da75)"><path fill="#ffffff" d="M 66.8125 87.835938 L 19.25 87.835938 C 18.707031 87.835938 18.265625 87.398438 18.265625 86.851562 L 18.265625 60.621094 C 18.265625 60.078125 18.707031 59.636719 19.25 59.636719 C 19.792969 59.636719 20.234375 60.078125 20.234375 60.621094 L 20.234375 85.867188 L 65.828125 85.867188 L 65.828125 60.621094 C 65.828125 60.078125 66.269531 59.636719 66.8125 59.636719 C 67.355469 59.636719 67.796875 60.078125 67.796875 60.621094 L 67.796875 86.851562 C 67.796875 87.398438 67.355469 87.835938 66.8125 87.835938 Z M 66.8125 87.835938 " fill-opacity="1" fill-rule="nonzero"/></g><g clip-path="url(#6c1ec5e699)"><path fill="#ffffff" d="M 97.039062 87.835938 L 14.738281 87.835938 C 14.195312 87.835938 13.753906 87.398438 13.753906 86.851562 C 13.753906 86.308594 14.195312 85.867188 14.738281 85.867188 L 97.039062 85.867188 C 97.582031 85.867188 98.023438 86.308594 98.023438 86.851562 C 98.023438 87.398438 97.582031 87.835938 97.039062 87.835938 Z M 97.039062 87.835938 " fill-opacity="1" fill-rule="nonzero"/></g><path fill="#ffffff" d="M 36.679688 78.332031 L 28.335938 78.332031 C 26.664062 78.332031 25.308594 76.976562 25.308594 75.308594 L 25.308594 67.671875 C 25.308594 66.003906 26.667969 64.648438 28.335938 64.648438 L 36.679688 64.648438 C 38.351562 64.648438 39.707031 66.003906 39.707031 67.671875 L 39.707031 75.308594 C 39.710938 76.976562 38.351562 78.332031 36.679688 78.332031 Z M 28.335938 66.617188 C 27.753906 66.617188 27.277344 67.089844 27.277344 67.671875 L 27.277344 75.308594 C 27.277344 75.890625 27.753906 76.363281 28.335938 76.363281 L 36.679688 76.363281 C 37.265625 76.363281 37.738281 75.890625 37.738281 75.308594 L 37.738281 67.671875 C 37.738281 67.089844 37.265625 66.617188 36.679688 66.617188 Z M 28.335938 66.617188 " fill-opacity="1" fill-rule="nonzero"/><g clip-path="url(#eb1623a8f8)"><path fill="#ffffff" d="M 59.765625 87.835938 L 46.09375 87.835938 C 45.550781 87.835938 45.109375 87.398438 45.109375 86.851562 L 45.109375 65.984375 C 45.109375 65.441406 45.550781 65 46.09375 65 L 59.765625 65 C 60.308594 65 60.75 65.441406 60.75 65.984375 L 60.75 86.851562 C 60.75 87.398438 60.3125 87.835938 59.765625 87.835938 Z M 47.078125 85.867188 L 58.78125 85.867188 L 58.78125 66.96875 L 47.078125 66.96875 Z M 47.078125 85.867188 " fill-opacity="1" fill-rule="nonzero"/></g><path fill="#ffffff" d="M 32.507812 78.332031 C 31.964844 78.332031 31.523438 77.894531 31.523438 77.347656 L 31.523438 65.628906 C 31.523438 65.085938 31.964844 64.644531 32.507812 64.644531 C 33.050781 64.644531 33.492188 65.085938 33.492188 65.628906 L 33.492188 77.347656 C 33.492188 77.894531 33.054688 78.332031 32.507812 78.332031 Z M 32.507812 78.332031 " fill-opacity="1" fill-rule="nonzero"/><path fill="#ffffff" d="M 38.726562 72.476562 L 26.292969 72.476562 C 25.75 72.476562 25.308594 72.035156 25.308594 71.492188 C 25.308594 70.949219 25.75 70.507812 26.292969 70.507812 L 38.726562 70.507812 C 39.269531 70.507812 39.710938 70.949219 39.710938 71.492188 C 39.710938 72.035156 39.269531 72.476562 38.726562 72.476562 Z M 38.726562 72.476562 " fill-opacity="1" fill-rule="nonzero"/><path fill="#ffffff" d="M 85.0625 45.421875 C 82.925781 45.421875 81.1875 43.683594 81.1875 41.542969 C 81.1875 41 81.628906 40.5625 82.171875 40.5625 C 82.714844 40.5625 83.15625 41 83.15625 41.542969 C 83.15625 42.597656 84.011719 43.453125 85.0625 43.453125 C 86.113281 43.453125 86.96875 42.597656 86.96875 41.542969 C 86.96875 40.492188 86.113281 39.640625 85.0625 39.640625 C 82.925781 39.640625 81.1875 37.902344 81.1875 35.765625 C 81.1875 33.628906 82.925781 31.890625 85.0625 31.890625 C 87.199219 31.890625 88.9375 33.628906 88.9375 35.765625 C 88.9375 36.308594 88.496094 36.75 87.953125 36.75 C 87.410156 36.75 86.96875 36.308594 86.96875 35.765625 C 86.96875 34.714844 86.113281 33.859375 85.0625 33.859375 C 84.011719 33.859375 83.15625 34.714844 83.15625 35.765625 C 83.15625 36.816406 84.011719 37.671875 85.0625 37.671875 C 87.199219 37.671875 88.9375 39.410156 88.9375 41.542969 C 88.9375 43.683594 87.199219 45.421875 85.0625 45.421875 Z M 85.0625 45.421875 " fill-opacity="1" fill-rule="nonzero"/><path fill="#ffffff" d="M 85.0625 46.324219 C 84.519531 46.324219 84.078125 45.882812 84.078125 45.339844 L 84.078125 31.96875 C 84.078125 31.425781 84.519531 30.984375 85.0625 30.984375 C 85.605469 30.984375 86.046875 31.425781 86.046875 31.96875 L 86.046875 45.339844 C 86.046875 45.882812 85.605469 46.324219 85.0625 46.324219 Z M 85.0625 46.324219 " fill-opacity="1" fill-rule="nonzero"/><path fill="#ffffff" d="M 85.0625 49.742188 C 78.949219 49.742188 73.972656 44.769531 73.972656 38.65625 C 73.972656 32.539062 78.949219 27.566406 85.0625 27.566406 C 91.175781 27.566406 96.152344 32.539062 96.152344 38.65625 C 96.152344 44.769531 91.175781 49.742188 85.0625 49.742188 Z M 85.0625 29.535156 C 80.035156 29.535156 75.941406 33.625 75.941406 38.65625 C 75.941406 43.683594 80.035156 47.773438 85.0625 47.773438 C 90.09375 47.773438 94.183594 43.683594 94.183594 38.65625 C 94.183594 33.625 90.09375 29.535156 85.0625 29.535156 Z M 85.0625 29.535156 " fill-opacity="1" fill-rule="nonzero"/><g clip-path="url(#978f7aa79f)"><path fill="#ffffff" d="M 85.0625 53.15625 C 77.066406 53.15625 70.5625 46.652344 70.5625 38.65625 C 70.5625 30.660156 77.066406 24.152344 85.0625 24.152344 C 93.058594 24.152344 99.5625 30.660156 99.5625 38.65625 C 99.5625 46.652344 93.058594 53.15625 85.0625 53.15625 Z M 85.0625 26.121094 C 78.152344 26.121094 72.53125 31.742188 72.53125 38.65625 C 72.53125 45.566406 78.152344 51.1875 85.0625 51.1875 C 91.972656 51.1875 97.597656 45.566406 97.597656 38.65625 C 97.597656 31.742188 91.972656 26.121094 85.0625 26.121094 Z M 85.0625 26.121094 " fill-opacity="1" fill-rule="nonzero"/></g><g clip-path="url(#f8c6ad7c35)"><path fill="#ffffff" d="M 92.09375 87.835938 C 91.550781 87.835938 91.109375 87.398438 91.109375 86.851562 C 91.109375 86.308594 91.550781 85.867188 92.09375 85.867188 C 93.941406 85.867188 95.445312 84.363281 95.445312 82.519531 C 95.445312 80.671875 93.941406 79.167969 92.09375 79.167969 L 78.035156 79.167969 C 76.183594 79.167969 74.683594 80.671875 74.683594 82.519531 C 74.683594 84.363281 76.1875 85.867188 78.035156 85.867188 C 78.578125 85.867188 79.015625 86.308594 79.015625 86.851562 C 79.015625 87.398438 78.578125 87.835938 78.035156 87.835938 C 75.101562 87.835938 72.714844 85.453125 72.714844 82.519531 C 72.714844 79.585938 75.101562 77.199219 78.035156 77.199219 L 92.09375 77.199219 C 95.027344 77.199219 97.414062 79.585938 97.414062 82.519531 C 97.414062 85.453125 95.027344 87.835938 92.09375 87.835938 Z M 92.09375 87.835938 " fill-opacity="1" fill-rule="nonzero"/></g><path fill="#ffffff" d="M 92.09375 79.167969 C 91.550781 79.167969 91.109375 78.726562 91.109375 78.183594 C 91.109375 77.640625 91.550781 77.199219 92.09375 77.199219 C 93.941406 77.199219 95.445312 75.695312 95.445312 73.847656 C 95.445312 72 93.941406 70.496094 92.09375 70.496094 L 78.035156 70.496094 C 76.183594 70.496094 74.683594 72 74.683594 73.847656 C 74.683594 75.695312 76.1875 77.199219 78.035156 77.199219 C 78.578125 77.199219 79.015625 77.640625 79.015625 78.183594 C 79.015625 78.726562 78.578125 79.167969 78.035156 79.167969 C 75.101562 79.167969 72.714844 76.78125 72.714844 73.847656 C 72.714844 70.914062 75.101562 68.527344 78.035156 68.527344 L 92.09375 68.527344 C 95.027344 68.527344 97.414062 70.914062 97.414062 73.847656 C 97.414062 76.78125 95.027344 79.167969 92.09375 79.167969 Z M 92.09375 79.167969 " fill-opacity="1" fill-rule="nonzero"/><path fill="#ffffff" d="M 92.09375 70.496094 C 91.550781 70.496094 91.109375 70.054688 91.109375 69.511719 C 91.109375 68.96875 91.550781 68.527344 92.09375 68.527344 C 93.941406 68.527344 95.445312 67.023438 95.445312 65.179688 C 95.445312 63.332031 93.941406 61.828125 92.09375 61.828125 L 78.035156 61.828125 C 76.183594 61.828125 74.683594 63.332031 74.683594 65.179688 C 74.683594 67.023438 76.1875 68.527344 78.035156 68.527344 C 78.578125 68.527344 79.015625 68.96875 79.015625 69.511719 C 79.015625 70.054688 78.578125 70.496094 78.035156 70.496094 C 75.101562 70.496094 72.714844 68.113281 72.714844 65.179688 C 72.714844 62.246094 75.101562 59.859375 78.035156 59.859375 L 92.09375 59.859375 C 95.027344 59.859375 97.414062 62.246094 97.414062 65.179688 C 97.414062 68.113281 95.027344 70.496094 92.09375 70.496094 Z M 92.09375 70.496094 " fill-opacity="1" fill-rule="nonzero"/><path fill="#ffffff" d="M 92.09375 61.824219 C 91.550781 61.824219 91.109375 61.386719 91.109375 60.839844 C 91.109375 60.296875 91.550781 59.859375 92.09375 59.859375 C 93.941406 59.859375 95.445312 58.355469 95.445312 56.507812 C 95.445312 54.660156 93.941406 53.15625 92.09375 53.15625 L 78.035156 53.15625 C 76.183594 53.15625 74.683594 54.660156 74.683594 56.507812 C 74.683594 58.355469 76.1875 59.859375 78.035156 59.859375 C 78.578125 59.859375 79.015625 60.296875 79.015625 60.839844 C 79.015625 61.386719 78.578125 61.824219 78.035156 61.824219 C 75.101562 61.824219 72.714844 59.441406 72.714844 56.507812 C 72.714844 53.574219 75.101562 51.1875 78.035156 51.1875 L 92.09375 51.1875 C 95.027344 51.1875 97.414062 53.574219 97.414062 56.507812 C 97.414062 59.441406 95.027344 61.824219 92.09375 61.824219 Z M 92.09375 61.824219 " fill-opacity="1" fill-rule="nonzero"/></svg>