<svg xmlns="http://www.w3.org/2000/svg" xmlns:xlink="http://www.w3.org/1999/xlink" width="150" zoomAndPan="magnify" viewBox="0 0 112.5 112.499997" height="150" preserveAspectRatio="xMidYMid meet" version="1.0"><defs><clipPath id="2a89a0ae44"><path d="M 14.308594 20.613281 L 97.9375 20.613281 L 97.9375 91.550781 L 14.308594 91.550781 Z M 14.308594 20.613281 " clip-rule="nonzero"/></clipPath></defs><path fill="#ffffff" d="M 65.664062 55.109375 L 71.066406 55.109375 L 71.066406 60.511719 L 65.664062 60.511719 Z M 65.664062 55.109375 " fill-opacity="1" fill-rule="nonzero"/><path fill="#ffffff" d="M 58.25 55.109375 L 63.65625 55.109375 L 63.65625 60.511719 L 58.25 60.511719 Z M 58.25 55.109375 " fill-opacity="1" fill-rule="nonzero"/><path fill="#ffffff" d="M 58.25 62.519531 L 63.65625 62.519531 L 63.65625 67.921875 L 58.25 67.921875 Z M 58.25 62.519531 " fill-opacity="1" fill-rule="nonzero"/><path fill="#ffffff" d="M 65.664062 62.519531 L 71.066406 62.519531 L 71.066406 67.921875 L 65.664062 67.921875 Z M 65.664062 62.519531 " fill-opacity="1" fill-rule="nonzero"/><g clip-path="url(#2a89a0ae44)"><path fill="#ffffff" d="M 64.703125 20.628906 L 36.894531 39.410156 L 50.636719 39.410156 L 64.703125 29.910156 L 90 47 L 90 83.675781 L 39.40625 83.675781 L 39.40625 59.695312 L 41.167969 59.695312 L 41.167969 59.589844 C 41.167969 57.09375 42.347656 54.742188 44.347656 53.246094 L 44.371094 53.222656 C 45.242188 52.574219 46.4375 52.574219 47.304688 53.222656 L 49.273438 54.695312 L 52.4375 54.695312 L 52.4375 44.410156 L 49.273438 44.410156 L 47.304688 45.886719 C 46.4375 46.539062 45.242188 46.539062 44.371094 45.886719 L 42.820312 44.722656 L 41.167969 43.488281 C 41.167969 43.488281 39.460938 43.226562 36.890625 43.226562 L 36.890625 43.207031 C 36.875 43.207031 36.859375 43.207031 36.84375 43.207031 C 35.363281 43.207031 33.601562 43.296875 31.710938 43.570312 L 31.710938 43.589844 C 25.144531 44.535156 17.089844 47.738281 14.308594 57.375 C 14.496094 57.15625 21.570312 49 27.605469 51.710938 C 28.972656 52.324219 30.054688 54.132812 30.054688 55.632812 L 30.054688 59.695312 L 31.714844 59.695312 L 31.714844 91.367188 L 97.695312 91.367188 L 97.695312 42.910156 Z M 64.703125 20.628906 " fill-opacity="1" fill-rule="nonzero"/></g></svg>