<svg xmlns="http://www.w3.org/2000/svg" xmlns:xlink="http://www.w3.org/1999/xlink" width="150" zoomAndPan="magnify" viewBox="0 0 112.5 112.499997" height="150" preserveAspectRatio="xMidYMid meet" version="1.0"><defs><clipPath id="035ae7b103"><path d="M 14.613281 14.613281 L 97.492188 14.613281 L 97.492188 97.492188 L 14.613281 97.492188 Z M 14.613281 14.613281 " clip-rule="nonzero"/></clipPath></defs><g clip-path="url(#035ae7b103)"><path fill="#ffffff" d="M 69.628906 78.039062 L 63.269531 82.0625 C 63.039062 82.207031 62.742188 82.195312 62.523438 82.035156 L 57.265625 78.039062 Z M 17.367188 72.527344 C 17.367188 71.769531 17.984375 71.152344 18.746094 71.152344 L 27.652344 71.152344 C 29.261719 71.152344 30.859375 70.742188 32.273438 69.972656 L 39.054688 66.269531 C 40.097656 65.722656 41.277344 65.527344 42.4375 65.699219 L 73.660156 70.652344 C 74.804688 70.828125 75.632812 71.796875 75.632812 72.953125 C 75.632812 74.238281 74.589844 75.28125 73.304688 75.28125 L 46.289062 75.28125 C 45.53125 75.28125 44.914062 75.902344 44.914062 76.660156 C 44.914062 77.417969 45.53125 78.039062 46.289062 78.039062 L 52.714844 78.039062 L 60.859375 84.226562 C 61.988281 85.082031 63.550781 85.148438 64.746094 84.390625 L 91.726562 67.308594 C 92.453125 66.832031 93.398438 66.949219 93.996094 67.574219 C 94.007812 67.585938 94.019531 67.601562 94.027344 67.609375 C 94.367188 67.988281 94.535156 68.472656 94.492188 68.976562 C 94.449219 69.488281 94.199219 69.933594 93.8125 70.242188 L 62.894531 93.726562 C 61.816406 94.539062 60.414062 94.78125 59.132812 94.367188 L 31.460938 85.453125 C 30.5 85.140625 29.515625 84.984375 28.519531 84.984375 C 28.519531 84.984375 28.515625 84.984375 28.507812 84.984375 C 26.335938 84.96875 21.691406 84.960938 18.726562 84.941406 C 17.980469 84.941406 17.367188 84.320312 17.367188 83.5625 Z M 66.949219 63.140625 C 68.546875 63.710938 69.703125 65.226562 69.703125 67.019531 C 69.703125 67.09375 69.6875 67.160156 69.6875 67.234375 L 66.949219 66.804688 Z M 64.195312 59.878906 C 62.597656 59.308594 61.441406 57.792969 61.441406 56 C 61.441406 54.210938 62.597656 52.691406 64.195312 52.121094 Z M 57.851562 42.226562 L 73.292969 42.226562 C 80.335938 46.402344 86.234375 56.25 86.234375 63.9375 C 86.234375 65.28125 86.050781 66.589844 85.738281 67.84375 L 78.367188 72.507812 C 78.167969 70.175781 76.425781 68.289062 74.085938 67.929688 L 72.40625 67.664062 C 72.425781 67.449219 72.460938 67.238281 72.460938 67.019531 C 72.460938 63.695312 70.09375 60.914062 66.949219 60.273438 L 66.949219 52.121094 C 68.546875 52.691406 69.703125 54.210938 69.703125 56 C 69.703125 56.757812 70.324219 57.378906 71.082031 57.378906 C 71.839844 57.378906 72.460938 56.757812 72.460938 56 C 72.460938 52.675781 70.09375 49.894531 66.949219 49.253906 L 66.949219 49.113281 C 66.949219 48.355469 66.332031 47.738281 65.574219 47.738281 C 64.8125 47.738281 64.195312 48.355469 64.195312 49.113281 L 64.195312 49.253906 C 61.054688 49.894531 58.6875 52.675781 58.6875 56 C 58.6875 59.324219 61.054688 62.105469 64.195312 62.746094 L 64.195312 66.363281 L 44.945312 63.3125 C 45.242188 55.726562 51 46.292969 57.851562 42.226562 Z M 55.78125 22.402344 C 56.179688 21.867188 56.789062 21.566406 57.445312 21.566406 L 58.6875 21.566406 L 58.6875 27.078125 C 58.6875 27.835938 59.304688 28.453125 60.0625 28.453125 C 60.820312 28.453125 61.441406 27.835938 61.441406 27.078125 L 61.441406 21.566406 C 61.441406 21.21875 61.484375 20.867188 61.570312 20.53125 C 61.574219 20.519531 61.570312 20.511719 61.570312 20.503906 C 61.574219 20.484375 61.585938 20.476562 61.589844 20.460938 C 62.085938 18.671875 63.710938 17.4375 65.574219 17.4375 C 67.421875 17.4375 69.042969 18.664062 69.550781 20.425781 C 69.550781 20.453125 69.566406 20.476562 69.574219 20.503906 C 69.574219 20.511719 69.570312 20.519531 69.574219 20.53125 C 69.660156 20.867188 69.703125 21.21875 69.703125 21.566406 L 69.703125 27.078125 C 69.703125 27.835938 70.324219 28.453125 71.082031 28.453125 C 71.839844 28.453125 72.460938 27.835938 72.460938 27.078125 L 72.460938 21.566406 L 73.703125 21.566406 C 74.359375 21.566406 74.964844 21.867188 75.363281 22.402344 C 75.769531 22.933594 75.890625 23.605469 75.710938 24.253906 L 72.949219 33.964844 L 58.195312 33.964844 L 55.4375 24.246094 C 55.253906 23.605469 55.378906 22.933594 55.78125 22.402344 Z M 57.308594 39.472656 C 56.550781 39.472656 55.933594 38.855469 55.933594 38.09375 C 55.933594 37.335938 56.550781 36.71875 57.308594 36.71875 L 73.835938 36.71875 C 74.59375 36.71875 75.214844 37.335938 75.214844 38.09375 C 75.214844 38.855469 74.59375 39.472656 73.835938 39.472656 Z M 18.710938 87.695312 C 21.613281 87.714844 26.082031 87.738281 28.347656 87.738281 C 28.40625 87.738281 28.457031 87.742188 28.519531 87.738281 C 29.226562 87.738281 29.933594 87.851562 30.617188 88.070312 L 58.289062 96.992188 C 58.976562 97.210938 59.6875 97.320312 60.390625 97.320312 C 61.882812 97.320312 63.34375 96.839844 64.5625 95.914062 L 95.488281 72.425781 C 96.488281 71.652344 97.121094 70.484375 97.234375 69.21875 C 97.34375 67.976562 96.933594 66.734375 96.105469 65.804688 C 96.089844 65.785156 96.078125 65.769531 96.0625 65.75 C 94.554688 64.09375 92.097656 63.78125 90.234375 64.992188 L 88.878906 65.847656 C 88.945312 65.214844 88.988281 64.578125 88.988281 63.9375 C 88.988281 55.964844 83.605469 46.300781 76.613281 41.136719 C 77.4375 40.382812 77.96875 39.304688 77.96875 38.09375 C 77.96875 36.488281 77.03125 35.105469 75.6875 34.421875 L 78.355469 25 C 78.78125 23.527344 78.492188 21.972656 77.566406 20.746094 C 76.632812 19.519531 75.230469 18.8125 73.703125 18.8125 L 71.890625 18.8125 C 70.808594 16.332031 68.347656 14.679688 65.574219 14.679688 C 62.796875 14.679688 60.339844 16.332031 59.257812 18.8125 L 57.445312 18.8125 C 55.914062 18.8125 54.511719 19.519531 53.582031 20.746094 C 52.65625 21.972656 52.363281 23.527344 52.789062 25 L 55.457031 34.421875 C 54.113281 35.105469 53.175781 36.488281 53.175781 38.09375 C 53.175781 39.304688 53.710938 40.382812 54.53125 41.136719 C 47.824219 46.085938 42.621094 55.167969 42.203125 62.9375 C 40.667969 62.824219 39.144531 63.113281 37.753906 63.84375 L 30.953125 67.558594 C 29.945312 68.105469 28.804688 68.394531 27.652344 68.394531 L 18.746094 68.394531 C 16.464844 68.394531 14.613281 70.246094 14.613281 72.527344 L 14.613281 83.5625 C 14.613281 85.828125 16.445312 87.679688 18.710938 87.695312 " fill-opacity="1" fill-rule="nonzero"/></g></svg>