<svg width="252" height="183" viewBox="0 0 252 183" fill="none" xmlns="http://www.w3.org/2000/svg">
<path fill-rule="evenodd" clip-rule="evenodd" d="M169.251 25.6369C170.069 27.3728 170.759 29.1643 171.311 31.0011H158.665C155.064 24.5094 151.598 20.8006 144.761 16.7327C137.923 12.6649 129.655 10.9463 121.499 11.8971C113.342 12.848 105.852 16.4034 100.424 21.901C95.6915 26.6944 92.8083 32.6793 92.1443 38.9831L92.1443 38.9831L92.1373 39.0501C92.0478 39.9207 92.0006 40.7973 91.9967 41.6777H109.263V24.6278H138.555V34.1262H120.047V41.8911H134.56V50.0842H120.047V68.9102H109.263V50.0842V49.9658H78.9058V41.7727V41.6777H78.9059C78.9118 39.83 79.0553 37.994 79.3317 36.1808L79.3414 36.1176C80.5875 28.0369 84.4742 20.4117 90.5866 14.2205C91.527 13.268 92.5121 12.3576 93.538 11.491C100.72 5.42494 109.904 1.50779 119.797 0.354623C120.504 0.272253 121.211 0.204337 121.918 0.150765C132.528 -0.652811 143.154 1.77116 152.039 7.057C159.662 11.5917 165.584 17.984 169.143 25.4089L169.143 25.409C169.179 25.4849 169.215 25.5609 169.251 25.6369ZM172.483 55.6004C171.268 63.5973 167.468 71.1544 161.478 77.3223C154.107 84.9136 143.911 89.8944 132.753 91.3556C121.594 92.8167 110.217 90.6608 100.698 85.2813C93.0545 80.962 87.0184 74.796 83.2532 67.5621C83.2082 67.4756 83.1635 67.389 83.1191 67.3022C82.2525 65.6069 81.5102 63.8539 80.9006 62.0531H93.4357C96.614 67.8446 100.851 71.5749 107.719 75.4561C114.587 79.3372 122.795 80.8927 130.846 79.8385C138.896 78.7843 146.252 75.1908 151.57 69.7139C156.84 64.2867 159.762 57.3688 159.814 50.2026H142.815V41.9145H172.906L172.906 50.0055C172.906 50.0192 172.906 50.033 172.906 50.0467V50.2026H172.905C172.896 51.9875 172.758 53.7614 172.496 55.5143L172.496 55.5144L172.483 55.6004Z" fill="url(#paint0_linear_5_18)"/>
<path d="M241.812 142.176H234.044L223.701 126.562V142.176H215.934V114.237H223.701L234.044 130.049V114.237H241.812V142.176Z" fill="#4E9ECA"/>
<path d="M202.784 123.431C202.335 122.692 201.714 122.124 200.921 121.727C200.155 121.331 199.244 121.133 198.187 121.133C196.232 121.133 194.687 121.767 193.551 123.035C192.441 124.303 191.886 126.007 191.886 128.147C191.886 130.551 192.481 132.387 193.669 133.656C194.885 134.897 196.642 135.518 198.94 135.518C201.661 135.518 203.603 134.29 204.765 131.833H196.959V126.245H211.463V133.774C210.855 135.254 209.957 136.641 208.768 137.935C207.606 139.23 206.126 140.3 204.33 141.145C202.533 141.964 200.486 142.374 198.187 142.374C195.387 142.374 192.903 141.779 190.737 140.591C188.597 139.375 186.933 137.698 185.744 135.558C184.581 133.391 184 130.921 184 128.147C184 125.4 184.581 122.956 185.744 120.816C186.933 118.649 188.597 116.972 190.737 115.783C192.877 114.568 195.347 113.96 198.147 113.96C201.661 113.96 204.567 114.805 206.866 116.496C209.164 118.187 210.591 120.499 211.146 123.431H202.784Z" fill="#4E9ECA"/>
<path d="M179.537 114.237V142.176H171.77V114.237H179.537Z" fill="#4E9ECA"/>
<path d="M156.836 120.459V125.016H165.752V130.921H156.836V135.954H166.941V142.176H149.068V114.237H166.941V120.459H156.836Z" fill="#4E9ECA"/>
<path d="M136.025 142.176L130.477 131.872H129.645V142.176H121.878V114.237H134.123C136.369 114.237 138.271 114.634 139.83 115.426C141.388 116.192 142.564 117.262 143.357 118.636C144.149 119.984 144.546 121.503 144.546 123.194C144.546 125.096 144.017 126.773 142.96 128.226C141.93 129.653 140.411 130.67 138.403 131.278L144.704 142.176H136.025ZM129.645 126.562H133.489C134.546 126.562 135.338 126.311 135.867 125.809C136.395 125.307 136.659 124.581 136.659 123.629C136.659 122.731 136.382 122.031 135.827 121.529C135.299 121.001 134.52 120.737 133.489 120.737H129.645V126.562Z" fill="#4E9ECA"/>
<path d="M106.944 120.459V125.016H115.86V130.921H106.944V135.954H117.049V142.176H99.1763V114.237H117.049V120.459H106.944Z" fill="#4E9ECA"/>
<path d="M95.7656 114.237L86.1358 142.176H76.1889L66.5195 114.237H74.8416L81.1822 134.409L87.4831 114.237H95.7656Z" fill="#4E9ECA"/>
<path d="M49.7919 142.453C47.1764 142.453 44.7723 141.846 42.5795 140.63C40.3867 139.389 38.643 137.684 37.3485 135.518C36.0804 133.325 35.4463 130.855 35.4463 128.108C35.4463 125.36 36.0804 122.903 37.3485 120.737C38.643 118.544 40.3867 116.84 42.5795 115.624C44.7723 114.409 47.1764 113.802 49.7919 113.802C52.4338 113.802 54.838 114.409 57.0043 115.624C59.1971 116.84 60.9276 118.544 62.1957 120.737C63.4638 122.903 64.0979 125.36 64.0979 128.108C64.0979 130.855 63.4638 133.325 62.1957 135.518C60.9276 137.684 59.1971 139.389 57.0043 140.63C54.8115 141.846 52.4074 142.453 49.7919 142.453ZM49.7919 135.241C51.7733 135.241 53.3321 134.593 54.4681 133.299C55.6305 132.004 56.2118 130.274 56.2118 128.108C56.2118 125.888 55.6305 124.145 54.4681 122.877C53.3321 121.582 51.7733 120.935 49.7919 120.935C47.784 120.935 46.2121 121.582 45.0761 122.877C43.9401 124.145 43.372 125.888 43.372 128.108C43.372 130.3 43.9401 132.044 45.0761 133.339C46.2121 134.607 47.784 135.241 49.7919 135.241Z" fill="#4E9ECA"/>
<path d="M21.3735 142.453C18.1239 142.453 15.4556 141.687 13.3684 140.155C11.2813 138.596 10.1585 136.377 10 133.497H18.2824C18.3617 134.475 18.6523 135.188 19.1542 135.637C19.6562 136.086 20.3035 136.311 21.0961 136.311C21.8094 136.311 22.3906 136.139 22.8397 135.796C23.3153 135.426 23.553 134.924 23.553 134.29C23.553 133.471 23.17 132.837 22.4038 132.387C21.6376 131.938 20.3959 131.436 18.6787 130.882C16.8558 130.274 15.3763 129.693 14.2403 129.138C13.1307 128.557 12.1532 127.724 11.3077 126.641C10.4888 125.532 10.0793 124.092 10.0793 122.322C10.0793 120.525 10.5284 118.993 11.4266 117.725C12.3249 116.43 13.5666 115.453 15.1517 114.792C16.7369 114.132 18.5334 113.802 20.5413 113.802C23.7908 113.802 26.3799 114.568 28.3085 116.1C30.2635 117.606 31.3071 119.733 31.4392 122.48H22.9982C22.9718 121.635 22.7076 121.001 22.2057 120.578C21.7301 120.155 21.1093 119.944 20.3431 119.944C19.7619 119.944 19.2863 120.116 18.9165 120.459C18.5466 120.803 18.3617 121.291 18.3617 121.925C18.3617 122.454 18.5598 122.916 18.9561 123.312C19.3788 123.682 19.894 124.013 20.5016 124.303C21.1093 124.567 22.0075 124.911 23.1964 125.334C24.9665 125.941 26.4195 126.549 27.5555 127.156C28.718 127.738 29.7087 128.57 30.5277 129.653C31.3731 130.71 31.7958 132.057 31.7958 133.695C31.7958 135.36 31.3731 136.852 30.5277 138.173C29.7087 139.494 28.5066 140.538 26.9215 141.304C25.3627 142.07 23.5134 142.453 21.3735 142.453Z" fill="#4E9ECA"/>
<path d="M174.409 170.915H179.109V172.755H172.129V158.855H174.409V170.915Z" fill="#4E9ECA"/>
<path d="M165.764 169.915H159.944L158.944 172.755H156.564L161.544 158.835H164.184L169.164 172.755H166.764L165.764 169.915ZM165.124 168.055L162.864 161.595L160.584 168.055H165.124Z" fill="#4E9ECA"/>
<path d="M153.591 158.855V172.755H151.311V158.855H153.591Z" fill="#4E9ECA"/>
<path d="M134.282 165.775C134.282 164.415 134.596 163.195 135.222 162.115C135.862 161.035 136.722 160.195 137.802 159.595C138.896 158.982 140.089 158.675 141.382 158.675C142.862 158.675 144.176 159.042 145.322 159.775C146.482 160.495 147.322 161.522 147.842 162.855H145.102C144.742 162.122 144.242 161.575 143.602 161.215C142.962 160.855 142.222 160.675 141.382 160.675C140.462 160.675 139.642 160.882 138.922 161.295C138.202 161.709 137.636 162.302 137.222 163.075C136.822 163.849 136.622 164.749 136.622 165.775C136.622 166.802 136.822 167.702 137.222 168.475C137.636 169.249 138.202 169.849 138.922 170.275C139.642 170.689 140.462 170.895 141.382 170.895C142.222 170.895 142.962 170.715 143.602 170.355C144.242 169.995 144.742 169.449 145.102 168.715H147.842C147.322 170.049 146.482 171.075 145.322 171.795C144.176 172.515 142.862 172.875 141.382 172.875C140.076 172.875 138.882 172.575 137.802 171.975C136.722 171.362 135.862 170.515 135.222 169.435C134.596 168.355 134.282 167.135 134.282 165.775Z" fill="#4E9ECA"/>
<path d="M131.248 172.755H128.968L122.108 162.375V172.755H119.828V158.835H122.108L128.968 169.195V158.835H131.248V172.755Z" fill="#4E9ECA"/>
<path d="M113.463 169.915H107.643L106.643 172.755H104.263L109.243 158.835H111.883L116.863 172.755H114.463L113.463 169.915ZM112.823 168.055L110.563 161.595L108.283 168.055H112.823Z" fill="#4E9ECA"/>
<path d="M101.289 172.755H99.0087L92.1487 162.375V172.755H89.8687V158.835H92.1487L99.0087 169.195V158.835H101.289V172.755Z" fill="#4E9ECA"/>
<path d="M86.0749 158.855V172.755H83.7949V158.855H86.0749Z" fill="#4E9ECA"/>
<path d="M80.8821 158.855V160.715H74.9821V164.815H79.5821V166.675H74.9821V172.755H72.7021V158.855H80.8821Z" fill="#4E9ECA"/>
<defs>
<linearGradient id="paint0_linear_5_18" x1="125.906" y1="0" x2="125.906" y2="91.8016" gradientUnits="userSpaceOnUse">
<stop stop-color="#3789B7"/>
<stop offset="1" stop-color="#88D4FD"/>
</linearGradient>
</defs>
</svg>
