<svg width="132" height="129" viewBox="0 0 132 129" fill="none" xmlns="http://www.w3.org/2000/svg">
<path fill-rule="evenodd" clip-rule="evenodd" d="M27.8476 33.3548C22.6079 39.5938 19.4061 46.9966 18.5902 54.7423C18.4582 55.9957 18.3886 57.2582 18.383 58.5261H42.6289V34.5837H83.762V47.9219H57.7734V58.8258H78.153V70.331H57.7734V96.7675H42.6289V70.331V70.1648H0V58.6595V58.5261H0.000254307C0.00851328 55.9314 0.210014 53.3533 0.598182 50.8071C2.33312 39.4268 7.79709 28.6859 16.4029 19.9692C26.9672 9.26883 41.5456 2.34866 57.4219 0.497981C58.4142 0.382313 59.4073 0.286941 60.4005 0.211713C75.2988 -0.916713 90.2215 2.48716 102.698 9.90983C103.367 10.3078 104.027 10.716 104.677 11.1341C114.429 17.4055 122.031 25.9058 126.716 35.6808C127.932 38.218 128.951 40.8411 129.761 43.5334H112.002C111.37 42.3939 110.741 41.3155 110.105 40.2895C105.655 33.1075 100.879 28.4953 92.4769 23.497C82.8751 17.7847 71.2655 15.3714 59.8111 16.7066C59.0952 16.7901 58.383 16.8878 57.6749 16.9996C47.0533 18.6766 37.3625 23.517 30.217 30.7546C29.3863 31.596 28.5962 32.4635 27.8476 33.3548ZM131.406 78.0772C129.7 89.3069 124.363 99.9189 115.953 108.58C105.601 119.24 91.284 126.235 75.6146 128.287C59.9452 130.338 43.9686 127.311 30.6011 119.757C19.8682 113.691 11.392 105.033 6.1047 94.8744C6.04148 94.753 5.97874 94.6313 5.91644 94.5095C4.69953 92.1289 3.65713 89.6672 2.80112 87.1385H20.4036C24.8667 95.2711 30.8162 100.509 40.4605 105.96C50.1049 111.41 61.6316 113.594 72.9366 112.114C84.2417 110.633 94.5711 105.587 102.04 97.8961C109.44 90.2749 113.542 80.5605 113.616 70.4973H89.7448V58.8586H132L132 70.2205C132 70.2393 132 70.2581 132 70.2769V70.4973H131.999C131.986 73.0037 131.792 75.4947 131.424 77.9563L131.424 77.9564L131.406 78.0772Z" fill="url(#paint0_linear_5_80)"/>
<defs>
<linearGradient id="paint0_linear_5_80" x1="66" y1="0" x2="66" y2="128.913" gradientUnits="userSpaceOnUse">
<stop stop-color="#3789B7"/>
<stop offset="1" stop-color="#88D4FD"/>
</linearGradient>
</defs>
</svg>
