<svg xmlns="http://www.w3.org/2000/svg" xmlns:xlink="http://www.w3.org/1999/xlink" width="150" zoomAndPan="magnify" viewBox="0 0 112.5 112.499997" height="150" preserveAspectRatio="xMidYMid meet" version="1.0"><defs><clipPath id="d48d072e59"><path d="M 11.199219 11.199219 L 100.800781 11.199219 L 100.800781 100.800781 L 11.199219 100.800781 Z M 11.199219 11.199219 " clip-rule="nonzero"/></clipPath></defs><path fill="#ffffff" d="M 48.707031 44.242188 C 46.242188 44.242188 44.242188 42.242188 44.242188 39.777344 C 44.242188 37.3125 46.242188 35.3125 48.707031 35.3125 C 51.171875 35.3125 53.171875 37.3125 53.171875 39.777344 C 53.171875 42.242188 51.171875 44.242188 48.707031 44.242188 Z M 56.148438 39.777344 C 56.148438 35.671875 52.8125 32.335938 48.707031 32.335938 C 44.601562 32.335938 41.265625 35.671875 41.265625 39.777344 C 41.265625 43.882812 44.601562 47.21875 48.707031 47.21875 C 52.8125 47.21875 56.148438 43.882812 56.148438 39.777344 " fill-opacity="1" fill-rule="nonzero"/><g clip-path="url(#d48d072e59)"><path fill="#ffffff" d="M 79.964844 97.824219 C 70.117188 97.824219 62.105469 89.8125 62.105469 79.964844 C 62.105469 70.117188 70.117188 62.105469 79.964844 62.105469 C 89.8125 62.105469 97.824219 70.117188 97.824219 79.964844 C 97.824219 89.8125 89.8125 97.824219 79.964844 97.824219 Z M 67.117188 63.59375 L 54.660156 63.59375 L 54.660156 56.148438 L 69.546875 56.148438 L 69.546875 61.945312 C 68.695312 62.441406 67.886719 62.988281 67.117188 63.59375 Z M 48.707031 82.941406 L 48.707031 56.148438 C 48.707031 54.511719 47.371094 53.171875 45.730469 53.171875 L 30.847656 53.171875 C 29.207031 53.171875 27.871094 54.511719 27.871094 56.148438 L 27.871094 82.941406 L 21.871094 82.941406 L 21.871094 47.371094 L 48.707031 24.328125 L 75.546875 47.371094 L 75.546875 59.609375 C 74.503906 59.835938 73.5 60.148438 72.523438 60.527344 L 72.523438 56.148438 C 72.523438 54.511719 71.183594 53.171875 69.546875 53.171875 L 54.660156 53.171875 C 53.023438 53.171875 51.683594 54.511719 51.683594 56.148438 L 51.683594 63.59375 C 51.683594 65.230469 53.023438 66.570312 54.660156 66.570312 L 64.027344 66.570312 C 60.976562 70.191406 59.125 74.867188 59.125 79.964844 C 59.125 80.976562 59.226562 81.964844 59.363281 82.941406 Z M 30.847656 82.941406 L 30.847656 56.148438 L 45.730469 56.148438 L 45.730469 82.941406 Z M 14.578125 43.335938 L 48.707031 14.542969 L 64.109375 27.539062 C 64.113281 27.539062 64.113281 27.542969 64.121094 27.550781 L 73.050781 35.078125 C 73.050781 35.085938 73.058594 35.085938 73.0625 35.085938 L 82.835938 43.335938 L 79.796875 47.101562 L 78.171875 45.707031 C 78.070312 45.585938 77.953125 45.488281 77.8125 45.398438 L 50.539062 21.980469 C 50.015625 21.507812 49.351562 21.277344 48.703125 21.277344 C 48.050781 21.277344 47.40625 21.503906 46.898438 21.964844 L 19.417969 45.5625 C 19.375 45.589844 19.339844 45.613281 19.304688 45.65625 L 17.621094 47.101562 Z M 66.570312 17.453125 L 72.523438 17.453125 L 72.523438 30.738281 L 66.570312 25.714844 Z M 79.964844 59.125 C 79.476562 59.125 79 59.167969 78.523438 59.195312 L 78.523438 49.851562 C 78.988281 50.113281 79.523438 50.230469 80.070312 50.183594 C 80.800781 50.121094 81.488281 49.753906 81.941406 49.183594 L 85.320312 45.003906 C 86.242188 43.859375 86.074219 42.160156 84.945312 41.21875 L 75.5 33.25 L 75.5 17.453125 C 75.5 15.8125 74.160156 14.476562 72.523438 14.476562 L 66.570312 14.476562 C 64.929688 14.476562 63.59375 15.8125 63.59375 17.453125 L 63.59375 23.203125 L 50.511719 12.167969 C 49.480469 11.277344 47.933594 11.269531 46.921875 12.15625 L 12.476562 41.214844 C 11.339844 42.160156 11.171875 43.859375 12.101562 45.003906 L 15.46875 49.171875 C 15.929688 49.753906 16.613281 50.121094 17.347656 50.183594 C 17.429688 50.191406 17.503906 50.195312 17.585938 50.195312 C 18.042969 50.195312 18.496094 50.074219 18.894531 49.851562 L 18.894531 83.191406 C 18.894531 84.695312 20.109375 85.917969 21.601562 85.917969 L 60.003906 85.917969 C 62.574219 94.511719 70.546875 100.800781 79.964844 100.800781 C 91.453125 100.800781 100.800781 91.453125 100.800781 79.964844 C 100.800781 68.476562 91.453125 59.125 79.964844 59.125 " fill-opacity="1" fill-rule="nonzero"/></g><path fill="#ffffff" d="M 35.3125 68.058594 C 34.492188 68.058594 33.824219 68.726562 33.824219 69.546875 L 33.824219 71.035156 C 33.824219 71.855469 34.492188 72.523438 35.3125 72.523438 C 36.132812 72.523438 36.800781 71.855469 36.800781 71.035156 L 36.800781 69.546875 C 36.800781 68.726562 36.132812 68.058594 35.3125 68.058594 " fill-opacity="1" fill-rule="nonzero"/><path fill="#ffffff" d="M 84.429688 85.917969 C 84.429688 87.855469 83.179688 89.492188 81.453125 90.109375 L 81.453125 81.726562 C 83.179688 82.34375 84.429688 83.980469 84.429688 85.917969 Z M 75.5 74.011719 C 75.5 72.074219 76.75 70.433594 78.476562 69.820312 L 78.476562 78.203125 C 76.75 77.585938 75.5 75.945312 75.5 74.011719 Z M 84.429688 74.011719 C 84.429688 74.832031 85.097656 75.5 85.917969 75.5 C 86.738281 75.5 87.40625 74.832031 87.40625 74.011719 C 87.40625 70.417969 84.847656 67.410156 81.453125 66.71875 L 81.453125 66.570312 C 81.453125 65.75 80.785156 65.082031 79.964844 65.082031 C 79.144531 65.082031 78.476562 65.75 78.476562 66.570312 L 78.476562 66.71875 C 75.082031 67.410156 72.523438 70.417969 72.523438 74.011719 C 72.523438 77.605469 75.082031 80.609375 78.476562 81.300781 L 78.476562 90.109375 C 76.75 89.492188 75.5 87.855469 75.5 85.917969 C 75.5 85.097656 74.832031 84.429688 74.011719 84.429688 C 73.191406 84.429688 72.523438 85.097656 72.523438 85.917969 C 72.523438 89.511719 75.082031 92.515625 78.476562 93.207031 L 78.476562 93.359375 C 78.476562 94.179688 79.144531 94.847656 79.964844 94.847656 C 80.785156 94.847656 81.453125 94.179688 81.453125 93.359375 L 81.453125 93.207031 C 84.847656 92.515625 87.40625 89.511719 87.40625 85.917969 C 87.40625 82.324219 84.847656 79.320312 81.453125 78.628906 L 81.453125 69.820312 C 83.179688 70.433594 84.429688 72.074219 84.429688 74.011719 " fill-opacity="1" fill-rule="nonzero"/></svg>