<svg xmlns="http://www.w3.org/2000/svg" xmlns:xlink="http://www.w3.org/1999/xlink" width="150" zoomAndPan="magnify" viewBox="0 0 112.5 112.499997" height="150" preserveAspectRatio="xMidYMid meet" version="1.0"><defs><clipPath id="6427ced8f4"><path d="M 16.351562 11.199219 L 58 11.199219 L 58 85 L 16.351562 85 Z M 16.351562 11.199219 " clip-rule="nonzero"/></clipPath><clipPath id="84a06299bc"><path d="M 53 27 L 95.5 27 L 95.5 100.800781 L 53 100.800781 Z M 53 27 " clip-rule="nonzero"/></clipPath></defs><path fill="#ffffff" d="M 82.835938 53.085938 L 57.230469 30.320312 C 57.042969 30.15625 56.835938 30.03125 56.605469 29.945312 C 56.375 29.859375 56.136719 29.816406 55.890625 29.816406 C 55.644531 29.816406 55.40625 29.859375 55.175781 29.945312 C 54.945312 30.03125 54.738281 30.15625 54.550781 30.320312 L 44.546875 39.226562 L 44.546875 33.261719 C 44.546875 32.992188 44.496094 32.734375 44.390625 32.484375 C 44.289062 32.238281 44.140625 32.015625 43.953125 31.828125 C 43.761719 31.636719 43.542969 31.488281 43.296875 31.386719 C 43.046875 31.285156 42.789062 31.230469 42.519531 31.230469 L 37.398438 31.230469 C 37.128906 31.230469 36.867188 31.28125 36.621094 31.382812 C 36.371094 31.488281 36.152344 31.632812 35.960938 31.824219 C 35.769531 32.015625 35.625 32.234375 35.519531 32.484375 C 35.417969 32.730469 35.367188 32.992188 35.367188 33.261719 L 35.367188 47.363281 L 28.9375 53.085938 C 28.621094 53.363281 28.414062 53.707031 28.3125 54.113281 C 28.210938 54.523438 28.238281 54.925781 28.386719 55.316406 C 28.535156 55.710938 28.78125 56.027344 29.128906 56.269531 C 29.472656 56.507812 29.855469 56.632812 30.277344 56.632812 L 35.378906 56.632812 L 35.378906 78.773438 C 35.375 79.042969 35.425781 79.300781 35.527344 79.550781 C 35.628906 79.800781 35.773438 80.023438 35.964844 80.210938 C 36.15625 80.402344 36.375 80.550781 36.625 80.652344 C 36.875 80.753906 37.136719 80.804688 37.40625 80.800781 L 74.382812 80.800781 C 74.652344 80.804688 74.914062 80.753906 75.164062 80.652344 C 75.414062 80.550781 75.632812 80.402344 75.824219 80.210938 C 76.015625 80.023438 76.160156 79.800781 76.261719 79.550781 C 76.363281 79.300781 76.414062 79.042969 76.410156 78.773438 L 76.410156 56.632812 L 81.511719 56.632812 C 81.933594 56.632812 82.316406 56.507812 82.660156 56.269531 C 83.007812 56.027344 83.253906 55.710938 83.402344 55.316406 C 83.550781 54.921875 83.570312 54.519531 83.46875 54.113281 C 83.363281 53.703125 83.152344 53.359375 82.835938 53.085938 Z M 55.890625 75.949219 C 54.921875 75.953125 53.964844 75.859375 53.015625 75.667969 C 52.070312 75.480469 51.148438 75.203125 50.253906 74.832031 C 49.359375 74.464844 48.511719 74.011719 47.707031 73.472656 C 46.902344 72.9375 46.160156 72.328125 45.476562 71.644531 C 44.792969 70.960938 44.179688 70.21875 43.644531 69.414062 C 43.105469 68.609375 42.652344 67.761719 42.28125 66.867188 C 41.910156 65.976562 41.632812 65.054688 41.441406 64.105469 C 41.253906 63.160156 41.160156 62.199219 41.160156 61.234375 C 41.160156 60.265625 41.253906 59.308594 41.441406 58.359375 C 41.628906 57.414062 41.910156 56.492188 42.277344 55.597656 C 42.648438 54.707031 43.101562 53.855469 43.640625 53.054688 C 44.175781 52.25 44.785156 51.503906 45.46875 50.820312 C 46.152344 50.136719 46.898438 49.527344 47.703125 48.992188 C 48.507812 48.453125 49.355469 48 50.246094 47.628906 C 51.140625 47.261719 52.0625 46.980469 53.011719 46.792969 C 53.957031 46.605469 54.917969 46.507812 55.882812 46.511719 C 56.851562 46.511719 57.808594 46.605469 58.753906 46.792969 C 59.703125 46.984375 60.625 47.261719 61.519531 47.632812 C 62.410156 48.003906 63.257812 48.457031 64.0625 48.996094 C 64.867188 49.53125 65.609375 50.140625 66.292969 50.828125 C 66.976562 51.511719 67.585938 52.253906 68.125 53.058594 C 68.660156 53.863281 69.113281 54.710938 69.484375 55.605469 C 69.851562 56.5 70.132812 57.417969 70.320312 58.367188 C 70.507812 59.316406 70.601562 60.273438 70.601562 61.242188 C 70.597656 62.207031 70.503906 63.164062 70.316406 64.109375 C 70.125 65.058594 69.847656 65.976562 69.476562 66.867188 C 69.109375 67.761719 68.652344 68.609375 68.117188 69.410156 C 67.582031 70.214844 66.972656 70.957031 66.289062 71.640625 C 65.605469 72.320312 64.863281 72.933594 64.058594 73.46875 C 63.257812 74.003906 62.410156 74.457031 61.519531 74.828125 C 60.625 75.199219 59.707031 75.476562 58.757812 75.667969 C 57.8125 75.855469 56.855469 75.949219 55.890625 75.949219 Z M 55.890625 75.949219 " fill-opacity="1" fill-rule="nonzero"/><path fill="#ffffff" d="M 55.890625 50.566406 C 55.191406 50.566406 54.496094 50.632812 53.808594 50.769531 C 53.121094 50.90625 52.457031 51.109375 51.808594 51.375 C 51.160156 51.644531 50.546875 51.96875 49.964844 52.359375 C 49.382812 52.746094 48.84375 53.1875 48.347656 53.683594 C 47.851562 54.179688 47.410156 54.714844 47.019531 55.296875 C 46.628906 55.878906 46.300781 56.492188 46.03125 57.140625 C 45.765625 57.785156 45.5625 58.453125 45.425781 59.140625 C 45.285156 59.828125 45.21875 60.519531 45.21875 61.21875 C 45.214844 61.917969 45.285156 62.613281 45.417969 63.300781 C 45.554688 63.988281 45.757812 64.652344 46.023438 65.300781 C 46.292969 65.949219 46.621094 66.5625 47.007812 67.144531 C 47.398438 67.726562 47.839844 68.265625 48.332031 68.761719 C 48.828125 69.257812 49.363281 69.699219 49.945312 70.089844 C 50.527344 70.480469 51.144531 70.808594 51.789062 71.078125 C 52.4375 71.34375 53.101562 71.546875 53.789062 71.6875 C 54.476562 71.824219 55.167969 71.890625 55.867188 71.894531 C 56.570312 71.894531 57.261719 71.824219 57.949219 71.691406 C 58.636719 71.554688 59.304688 71.351562 59.949219 71.085938 C 60.597656 70.816406 61.210938 70.488281 61.792969 70.101562 C 62.375 69.714844 62.914062 69.273438 63.410156 68.777344 C 63.90625 68.28125 64.347656 67.746094 64.738281 67.164062 C 65.128906 66.582031 65.457031 65.96875 65.726562 65.320312 C 65.996094 64.675781 66.199219 64.007812 66.335938 63.320312 C 66.472656 62.632812 66.542969 61.941406 66.542969 61.242188 C 66.542969 60.539062 66.472656 59.847656 66.339844 59.160156 C 66.203125 58.472656 66 57.808594 65.734375 57.160156 C 65.464844 56.515625 65.136719 55.898438 64.75 55.316406 C 64.359375 54.734375 63.917969 54.195312 63.425781 53.699219 C 62.929688 53.203125 62.390625 52.761719 61.8125 52.371094 C 61.230469 51.984375 60.613281 51.652344 59.96875 51.386719 C 59.324219 51.117188 58.65625 50.914062 57.96875 50.777344 C 57.285156 50.636719 56.589844 50.570312 55.890625 50.566406 Z M 54.695312 58.703125 C 55.019531 59.042969 55.417969 59.214844 55.890625 59.210938 C 56.65625 59.210938 57.390625 59.359375 58.097656 59.648438 C 58.804688 59.941406 59.425781 60.359375 59.96875 60.898438 C 60.824219 61.730469 61.257812 62.746094 61.269531 63.941406 C 61.261719 65.101562 60.847656 66.09375 60.027344 66.917969 C 59.425781 67.527344 58.722656 67.976562 57.921875 68.273438 L 57.921875 68.4375 C 57.917969 68.707031 57.867188 68.964844 57.765625 69.210938 C 57.660156 69.460938 57.515625 69.679688 57.324219 69.871094 C 57.132812 70.058594 56.914062 70.207031 56.667969 70.308594 C 56.417969 70.410156 56.160156 70.460938 55.890625 70.460938 C 55.621094 70.460938 55.363281 70.410156 55.113281 70.308594 C 54.867188 70.207031 54.644531 70.058594 54.457031 69.871094 C 54.265625 69.679688 54.117188 69.460938 54.015625 69.210938 C 53.914062 68.964844 53.859375 68.707031 53.859375 68.4375 L 53.859375 68.273438 C 53.082031 67.988281 52.402344 67.554688 51.8125 66.972656 L 51.101562 66.265625 C 50.910156 66.074219 50.765625 65.855469 50.660156 65.609375 C 50.558594 65.359375 50.507812 65.101562 50.507812 64.832031 C 50.507812 64.566406 50.558594 64.308594 50.660156 64.058594 C 50.765625 63.8125 50.910156 63.59375 51.101562 63.402344 C 51.292969 63.210938 51.511719 63.066406 51.761719 62.964844 C 52.011719 62.859375 52.273438 62.808594 52.542969 62.808594 C 52.8125 62.808594 53.070312 62.859375 53.320312 62.964844 C 53.570312 63.066406 53.792969 63.210938 53.984375 63.402344 L 54.695312 64.113281 C 54.855469 64.265625 55.039062 64.382812 55.246094 64.460938 C 55.453125 64.542969 55.667969 64.585938 55.890625 64.585938 C 56.113281 64.585938 56.328125 64.542969 56.535156 64.460938 C 56.738281 64.382812 56.925781 64.265625 57.085938 64.113281 L 57.207031 63.933594 L 57.085938 63.75 C 56.753906 63.429688 56.355469 63.269531 55.890625 63.269531 C 55.125 63.269531 54.390625 63.125 53.683594 62.832031 C 52.976562 62.539062 52.351562 62.125 51.8125 61.585938 C 50.957031 60.75 50.523438 59.734375 50.511719 58.542969 C 50.511719 57.378906 50.925781 56.386719 51.75 55.566406 C 52.351562 54.964844 53.054688 54.523438 53.859375 54.246094 L 53.859375 54.035156 C 53.859375 53.765625 53.910156 53.507812 54.015625 53.257812 C 54.117188 53.007812 54.265625 52.789062 54.453125 52.597656 C 54.644531 52.410156 54.863281 52.261719 55.113281 52.160156 C 55.363281 52.054688 55.621094 52.003906 55.890625 52.003906 C 56.160156 52.003906 56.417969 52.054688 56.667969 52.160156 C 56.914062 52.261719 57.136719 52.410156 57.324219 52.597656 C 57.515625 52.789062 57.664062 53.007812 57.765625 53.257812 C 57.867188 53.507812 57.921875 53.765625 57.921875 54.035156 L 57.921875 54.21875 C 58.695312 54.488281 59.378906 54.910156 59.96875 55.476562 L 60.679688 56.207031 C 60.871094 56.398438 61.015625 56.617188 61.117188 56.863281 C 61.222656 57.113281 61.273438 57.371094 61.273438 57.636719 C 61.273438 57.90625 61.222656 58.164062 61.117188 58.414062 C 61.015625 58.660156 60.871094 58.878906 60.679688 59.070312 C 60.488281 59.257812 60.265625 59.40625 60.015625 59.507812 C 59.769531 59.609375 59.507812 59.660156 59.238281 59.660156 C 58.96875 59.660156 58.707031 59.609375 58.457031 59.507812 C 58.210938 59.40625 57.988281 59.257812 57.796875 59.070312 L 57.085938 58.359375 C 56.925781 58.207031 56.738281 58.089844 56.535156 58.007812 C 56.328125 57.925781 56.113281 57.886719 55.890625 57.886719 C 55.667969 57.886719 55.453125 57.925781 55.246094 58.007812 C 55.039062 58.089844 54.855469 58.207031 54.695312 58.359375 L 54.570312 58.539062 Z M 54.695312 58.703125 " fill-opacity="1" fill-rule="nonzero"/><g clip-path="url(#6427ced8f4)"><path fill="#ffffff" d="M 20.964844 49.539062 C 20.980469 49.457031 20.988281 49.371094 21.003906 49.289062 C 21.167969 48.441406 21.390625 47.601562 21.617188 46.765625 C 21.699219 46.464844 21.761719 46.15625 21.855469 45.855469 C 22.050781 45.203125 22.296875 44.566406 22.53125 43.921875 C 22.703125 43.449219 22.855469 42.964844 23.046875 42.503906 C 23.238281 42.039062 23.472656 41.597656 23.675781 41.148438 C 23.96875 40.511719 24.25 39.890625 24.574219 39.285156 C 24.71875 39.015625 24.890625 38.757812 25.042969 38.492188 C 25.46875 37.738281 25.914062 36.980469 26.402344 36.261719 C 26.445312 36.195312 26.5 36.132812 26.542969 36.070312 C 27.921875 34.058594 29.488281 32.207031 31.246094 30.515625 C 33.003906 28.828125 34.914062 27.335938 36.980469 26.039062 C 39.042969 24.742188 41.21875 23.667969 43.503906 22.820312 C 45.789062 21.96875 48.136719 21.363281 50.546875 20.996094 L 49.433594 22.109375 C 49.25 22.300781 49.113281 22.519531 49.015625 22.765625 C 48.921875 23.011719 48.875 23.269531 48.878906 23.53125 C 48.882812 23.796875 48.9375 24.050781 49.039062 24.292969 C 49.140625 24.535156 49.285156 24.75 49.472656 24.9375 C 49.660156 25.125 49.875 25.269531 50.117188 25.371094 C 50.363281 25.476562 50.617188 25.527344 50.878906 25.53125 C 51.144531 25.535156 51.398438 25.488281 51.644531 25.394531 C 51.890625 25.296875 52.109375 25.160156 52.300781 24.980469 L 57.324219 19.957031 C 57.511719 19.765625 57.660156 19.542969 57.761719 19.292969 C 57.976562 18.777344 57.976562 18.261719 57.761719 17.746094 C 57.660156 17.496094 57.511719 17.273438 57.324219 17.082031 L 52.300781 12.0625 C 52.113281 11.871094 51.890625 11.726562 51.644531 11.625 C 51.394531 11.519531 51.136719 11.46875 50.867188 11.46875 C 50.597656 11.46875 50.339844 11.519531 50.09375 11.625 C 49.84375 11.726562 49.625 11.871094 49.433594 12.0625 C 49.246094 12.253906 49.097656 12.472656 48.996094 12.71875 C 48.890625 12.96875 48.839844 13.226562 48.839844 13.496094 C 48.839844 13.765625 48.890625 14.023438 48.992188 14.273438 C 49.097656 14.519531 49.242188 14.742188 49.433594 14.929688 L 51.285156 16.78125 C 49.097656 17.035156 46.945312 17.472656 44.832031 18.085938 C 42.714844 18.699219 40.667969 19.484375 38.683594 20.441406 C 36.699219 21.398438 34.8125 22.515625 33.015625 23.789062 C 31.21875 25.058594 29.539062 26.472656 27.976562 28.027344 C 27.949219 28.054688 27.90625 28.066406 27.878906 28.09375 C 26.144531 29.839844 24.585938 31.726562 23.203125 33.761719 C 23.148438 33.84375 23.085938 33.914062 23.03125 33.996094 C 22.492188 34.796875 22.007812 35.625 21.542969 36.457031 C 21.367188 36.761719 21.171875 37.058594 21.003906 37.371094 C 20.644531 38.039062 20.339844 38.726562 20.019531 39.40625 C 19.777344 39.925781 19.523438 40.429688 19.304688 40.957031 C 19.082031 41.484375 18.929688 41.976562 18.742188 42.484375 C 18.472656 43.21875 18.199219 43.945312 17.96875 44.695312 C 17.875 45.007812 17.8125 45.320312 17.730469 45.632812 C 17.464844 46.585938 17.214844 47.546875 17.023438 48.523438 C 17.023438 48.574219 17.011719 48.628906 17 48.683594 C 16.523438 51.132812 16.28125 53.609375 16.273438 56.105469 C 16.273438 56.152344 16.296875 56.1875 16.300781 56.234375 C 16.300781 58.824219 16.558594 61.386719 17.066406 63.929688 C 17.574219 66.46875 18.324219 68.933594 19.316406 71.328125 C 20.3125 73.71875 21.527344 75.992188 22.96875 78.144531 C 24.410156 80.296875 26.046875 82.289062 27.878906 84.121094 C 28.066406 84.320312 28.285156 84.472656 28.535156 84.585938 C 28.789062 84.695312 29.050781 84.753906 29.324219 84.757812 C 29.597656 84.761719 29.863281 84.710938 30.117188 84.609375 C 30.371094 84.503906 30.597656 84.355469 30.789062 84.164062 C 30.984375 83.96875 31.132812 83.742188 31.234375 83.488281 C 31.339844 83.234375 31.386719 82.972656 31.382812 82.695312 C 31.378906 82.421875 31.324219 82.160156 31.210938 81.910156 C 31.101562 81.65625 30.945312 81.4375 30.746094 81.25 C 29.730469 80.230469 28.777344 79.15625 27.890625 78.019531 C 27.003906 76.886719 26.1875 75.699219 25.445312 74.464844 C 24.699219 73.234375 24.035156 71.957031 23.445312 70.644531 C 22.859375 69.328125 22.351562 67.984375 21.925781 66.605469 C 21.503906 65.230469 21.164062 63.832031 20.90625 62.414062 C 20.652344 60.996094 20.484375 59.570312 20.40625 58.132812 C 20.324219 56.695312 20.328125 55.253906 20.421875 53.816406 C 20.515625 52.378906 20.699219 50.953125 20.964844 49.539062 Z M 20.964844 49.539062 " fill-opacity="1" fill-rule="nonzero"/></g><g clip-path="url(#84a06299bc)"><path fill="#ffffff" d="M 83.902344 84.121094 C 85.636719 82.375 87.195312 80.488281 88.578125 78.453125 C 88.632812 78.371094 88.695312 78.300781 88.75 78.21875 C 89.289062 77.417969 89.773438 76.589844 90.238281 75.757812 C 90.414062 75.449219 90.609375 75.15625 90.777344 74.84375 C 91.132812 74.179688 91.441406 73.492188 91.757812 72.8125 C 92 72.292969 92.257812 71.785156 92.476562 71.257812 C 92.695312 70.726562 92.851562 70.242188 93.035156 69.734375 C 93.304688 69 93.582031 68.269531 93.808594 67.519531 C 93.902344 67.207031 93.96875 66.894531 94.050781 66.582031 C 94.3125 65.628906 94.566406 64.667969 94.757812 63.691406 C 94.757812 63.640625 94.769531 63.585938 94.78125 63.53125 C 95.257812 61.082031 95.5 58.605469 95.507812 56.105469 C 95.507812 56.0625 95.484375 56.027344 95.480469 55.980469 C 95.476562 53.390625 95.222656 50.828125 94.714844 48.285156 C 94.207031 45.746094 93.457031 43.28125 92.460938 40.886719 C 91.46875 38.496094 90.253906 36.222656 88.8125 34.070312 C 87.371094 31.917969 85.734375 29.925781 83.902344 28.09375 C 83.710938 27.914062 83.492188 27.773438 83.246094 27.679688 C 83 27.582031 82.742188 27.539062 82.480469 27.542969 C 82.214844 27.546875 81.960938 27.597656 81.71875 27.703125 C 81.476562 27.804688 81.261719 27.949219 81.074219 28.136719 C 80.886719 28.324219 80.742188 28.539062 80.640625 28.78125 C 80.535156 29.023438 80.484375 29.277344 80.480469 29.542969 C 80.476562 29.804688 80.523438 30.0625 80.617188 30.308594 C 80.714844 30.554688 80.851562 30.773438 81.03125 30.964844 C 82.050781 31.984375 83.003906 33.0625 83.890625 34.195312 C 84.777344 35.332031 85.59375 36.515625 86.335938 37.75 C 87.078125 38.984375 87.742188 40.257812 88.332031 41.570312 C 88.921875 42.886719 89.425781 44.230469 89.851562 45.609375 C 90.273438 46.984375 90.613281 48.382812 90.871094 49.800781 C 91.125 51.21875 91.292969 52.644531 91.371094 54.082031 C 91.453125 55.523438 91.445312 56.960938 91.351562 58.398438 C 91.257812 59.835938 91.078125 61.261719 90.8125 62.675781 C 90.792969 62.757812 90.789062 62.84375 90.773438 62.925781 C 90.605469 63.773438 90.382812 64.613281 90.160156 65.449219 C 90.074219 65.75 90.015625 66.058594 89.921875 66.359375 C 89.726562 67.011719 89.480469 67.652344 89.246094 68.296875 C 89.074219 68.769531 88.917969 69.25 88.726562 69.710938 C 88.535156 70.175781 88.300781 70.613281 88.089844 71.066406 C 87.800781 71.691406 87.519531 72.324219 87.191406 72.929688 C 87.046875 73.199219 86.875 73.457031 86.726562 73.722656 C 86.300781 74.476562 85.855469 75.234375 85.363281 75.953125 C 85.324219 76.019531 85.269531 76.082031 85.226562 76.144531 C 83.847656 78.15625 82.28125 80.007812 80.523438 81.699219 C 78.765625 83.386719 76.851562 84.878906 74.789062 86.175781 C 72.722656 87.472656 70.550781 88.546875 68.265625 89.394531 C 65.980469 90.246094 63.632812 90.851562 61.222656 91.21875 L 62.335938 90.105469 C 62.515625 89.914062 62.65625 89.695312 62.75 89.449219 C 62.847656 89.203125 62.890625 88.945312 62.886719 88.683594 C 62.882812 88.417969 62.832031 88.164062 62.726562 87.921875 C 62.625 87.679688 62.480469 87.464844 62.292969 87.277344 C 62.105469 87.089844 61.890625 86.945312 61.648438 86.84375 C 61.40625 86.738281 61.152344 86.6875 60.886719 86.683594 C 60.625 86.679688 60.367188 86.726562 60.121094 86.820312 C 59.875 86.917969 59.65625 87.054688 59.464844 87.234375 L 54.445312 92.257812 C 54.253906 92.449219 54.109375 92.667969 54.003906 92.921875 C 53.789062 93.4375 53.789062 93.953125 54.003906 94.46875 C 54.109375 94.71875 54.253906 94.941406 54.445312 95.132812 L 59.464844 100.152344 C 59.65625 100.34375 59.875 100.488281 60.125 100.589844 C 60.371094 100.695312 60.628906 100.746094 60.898438 100.746094 C 61.167969 100.746094 61.425781 100.695312 61.675781 100.59375 C 61.925781 100.488281 62.144531 100.34375 62.335938 100.152344 C 62.523438 99.960938 62.671875 99.742188 62.773438 99.496094 C 62.878906 99.246094 62.929688 98.988281 62.929688 98.71875 C 62.929688 98.449219 62.878906 98.191406 62.773438 97.941406 C 62.671875 97.695312 62.523438 97.472656 62.335938 97.285156 L 60.484375 95.433594 C 62.671875 95.179688 64.820312 94.742188 66.9375 94.128906 C 69.050781 93.515625 71.101562 92.730469 73.082031 91.773438 C 75.066406 90.816406 76.957031 89.699219 78.753906 88.425781 C 80.550781 87.152344 82.230469 85.742188 83.789062 84.1875 C 83.832031 84.167969 83.871094 84.148438 83.902344 84.121094 Z M 83.902344 84.121094 " fill-opacity="1" fill-rule="nonzero"/></g></svg>