<svg xmlns="http://www.w3.org/2000/svg" xmlns:xlink="http://www.w3.org/1999/xlink" width="150" zoomAndPan="magnify" viewBox="0 0 112.5 112.499997" height="150" preserveAspectRatio="xMidYMid meet" version="1.0"><defs><clipPath id="827dfda21f"><path d="M 86 28 L 88.847656 28 L 88.847656 30 L 86 30 Z M 86 28 " clip-rule="nonzero"/></clipPath><clipPath id="1f8b83a162"><path d="M 27 23.921875 L 86 23.921875 L 86 80 L 27 80 Z M 27 23.921875 " clip-rule="nonzero"/></clipPath><clipPath id="1e6122252a"><path d="M 23.140625 80 L 32 80 L 32 88.136719 L 23.140625 88.136719 Z M 23.140625 80 " clip-rule="nonzero"/></clipPath></defs><g clip-path="url(#827dfda21f)"><path fill="#000000" d="M 88.367188 29.644531 C 88.289062 29.644531 88.214844 29.625 88.144531 29.585938 C 87.765625 29.371094 87.378906 29.15625 86.992188 28.953125 C 86.886719 28.894531 86.816406 28.808594 86.78125 28.691406 C 86.746094 28.578125 86.757812 28.464844 86.8125 28.359375 C 86.867188 28.253906 86.953125 28.179688 87.070312 28.144531 C 87.183594 28.105469 87.292969 28.113281 87.402344 28.167969 C 87.800781 28.375 88.203125 28.59375 88.585938 28.816406 C 88.785156 28.929688 88.855469 29.09375 88.796875 29.316406 C 88.738281 29.535156 88.59375 29.644531 88.367188 29.644531 Z M 88.367188 29.644531 " fill-opacity="1" fill-rule="nonzero"/></g><g clip-path="url(#1f8b83a162)"><path fill="#000000" d="M 27.753906 79.203125 C 27.726562 79.203125 27.703125 79.199219 27.675781 79.195312 C 27.554688 79.175781 27.460938 79.113281 27.390625 79.011719 C 27.320312 78.914062 27.296875 78.800781 27.316406 78.683594 C 27.46875 77.796875 27.644531 76.90625 27.839844 76.03125 C 27.867188 75.910156 27.929688 75.816406 28.035156 75.753906 C 28.136719 75.6875 28.25 75.667969 28.371094 75.691406 C 28.488281 75.71875 28.582031 75.785156 28.648438 75.886719 C 28.714844 75.992188 28.734375 76.105469 28.707031 76.222656 C 28.515625 77.085938 28.34375 77.964844 28.191406 78.832031 C 28.171875 78.941406 28.121094 79.027344 28.039062 79.097656 C 27.957031 79.167969 27.863281 79.203125 27.753906 79.203125 Z M 28.910156 73.96875 C 28.761719 73.96875 28.644531 73.910156 28.554688 73.796875 C 28.464844 73.679688 28.441406 73.550781 28.480469 73.410156 C 28.714844 72.542969 28.972656 71.671875 29.246094 70.816406 C 29.28125 70.699219 29.355469 70.613281 29.464844 70.554688 C 29.574219 70.5 29.6875 70.488281 29.804688 70.527344 C 29.921875 70.566406 30.011719 70.640625 30.066406 70.75 C 30.121094 70.859375 30.128906 70.972656 30.089844 71.089844 C 29.824219 71.929688 29.566406 72.789062 29.335938 73.640625 C 29.277344 73.855469 29.136719 73.964844 28.917969 73.96875 Z M 30.546875 68.867188 C 30.496094 68.867188 30.441406 68.859375 30.394531 68.839844 C 30.277344 68.796875 30.195312 68.71875 30.144531 68.605469 C 30.09375 68.496094 30.089844 68.382812 30.132812 68.265625 C 30.445312 67.425781 30.785156 66.582031 31.136719 65.757812 C 31.183594 65.648438 31.265625 65.566406 31.378906 65.523438 C 31.492188 65.476562 31.605469 65.476562 31.71875 65.527344 C 31.832031 65.574219 31.910156 65.65625 31.957031 65.769531 C 32.003906 65.882812 32 65.996094 31.953125 66.109375 C 31.609375 66.917969 31.273438 67.75 30.964844 68.578125 C 30.894531 68.769531 30.757812 68.867188 30.554688 68.867188 Z M 44.820312 65.402344 C 44.695312 65.410156 44.589844 65.375 44.496094 65.292969 C 44.40625 65.210938 44.355469 65.109375 44.347656 64.988281 C 44.339844 64.863281 44.375 64.757812 44.457031 64.664062 C 44.539062 64.574219 44.640625 64.523438 44.761719 64.515625 C 45.609375 64.40625 46.425781 64.175781 47.207031 63.828125 C 47.316406 63.777344 47.429688 63.773438 47.546875 63.816406 C 47.660156 63.859375 47.742188 63.9375 47.792969 64.046875 C 47.84375 64.160156 47.847656 64.273438 47.804688 64.386719 C 47.761719 64.503906 47.683594 64.585938 47.574219 64.636719 C 46.710938 65.023438 45.8125 65.277344 44.878906 65.398438 C 44.855469 65.402344 44.835938 65.402344 44.820312 65.402344 Z M 42.148438 65.390625 C 42.128906 65.394531 42.109375 65.394531 42.089844 65.390625 C 41.160156 65.265625 40.261719 65.015625 39.398438 64.644531 C 39.289062 64.59375 39.207031 64.511719 39.164062 64.398438 C 39.117188 64.285156 39.121094 64.171875 39.167969 64.058594 C 39.21875 63.945312 39.300781 63.867188 39.414062 63.820312 C 39.527344 63.777344 39.644531 63.777344 39.753906 63.828125 C 40.542969 64.164062 41.363281 64.390625 42.214844 64.507812 C 42.328125 64.523438 42.421875 64.578125 42.496094 64.667969 C 42.570312 64.757812 42.601562 64.863281 42.59375 64.976562 C 42.585938 65.09375 42.539062 65.191406 42.453125 65.273438 C 42.371094 65.351562 42.269531 65.390625 42.152344 65.390625 Z M 32.660156 63.941406 C 32.585938 63.941406 32.511719 63.921875 32.445312 63.882812 C 32.378906 63.847656 32.324219 63.796875 32.285156 63.730469 C 32.246094 63.667969 32.222656 63.59375 32.21875 63.519531 C 32.214844 63.441406 32.230469 63.371094 32.261719 63.300781 C 32.652344 62.492188 33.070312 61.6875 33.496094 60.902344 C 33.554688 60.792969 33.644531 60.722656 33.761719 60.6875 C 33.878906 60.652344 33.992188 60.664062 34.101562 60.722656 C 34.207031 60.78125 34.277344 60.871094 34.3125 60.988281 C 34.347656 61.105469 34.335938 61.21875 34.277344 61.328125 C 33.855469 62.101562 33.445312 62.894531 33.0625 63.691406 C 32.980469 63.855469 32.847656 63.941406 32.660156 63.941406 Z M 37.296875 63.277344 C 37.191406 63.277344 37.097656 63.246094 37.015625 63.175781 C 36.296875 62.582031 35.664062 61.90625 35.109375 61.152344 C 35.023438 61.054688 34.988281 60.941406 35 60.8125 C 35.015625 60.683594 35.074219 60.582031 35.179688 60.503906 C 35.28125 60.425781 35.398438 60.398438 35.527344 60.421875 C 35.652344 60.449219 35.75 60.515625 35.820312 60.625 C 36.332031 61.320312 36.917969 61.941406 37.578125 62.492188 C 37.738281 62.625 37.785156 62.789062 37.714844 62.984375 C 37.640625 63.183594 37.503906 63.28125 37.296875 63.28125 Z M 49.59375 63.191406 C 49.394531 63.191406 49.257812 63.097656 49.183594 62.914062 C 49.105469 62.730469 49.140625 62.566406 49.285156 62.425781 C 49.488281 62.230469 49.679688 62.019531 49.855469 61.796875 C 50.199219 61.363281 50.472656 60.886719 50.683594 60.375 C 50.726562 60.257812 50.804688 60.175781 50.921875 60.125 C 51.035156 60.074219 51.152344 60.074219 51.269531 60.121094 C 51.382812 60.167969 51.464844 60.25 51.511719 60.367188 C 51.558594 60.484375 51.554688 60.601562 51.503906 60.714844 C 51.261719 61.304688 50.945312 61.847656 50.546875 62.347656 C 50.347656 62.597656 50.132812 62.835938 49.902344 63.058594 C 49.816406 63.144531 49.714844 63.1875 49.59375 63.1875 Z M 35.222656 59.234375 C 35.050781 59.234375 34.921875 59.160156 34.835938 59.007812 C 34.753906 58.855469 34.753906 58.707031 34.84375 58.558594 C 35.039062 58.238281 35.238281 57.914062 35.441406 57.597656 C 35.726562 57.152344 36.027344 56.707031 36.335938 56.285156 C 36.410156 56.191406 36.507812 56.132812 36.625 56.117188 C 36.746094 56.101562 36.851562 56.128906 36.949219 56.199219 C 37.046875 56.269531 37.105469 56.363281 37.125 56.484375 C 37.144531 56.601562 37.121094 56.710938 37.054688 56.8125 C 36.757812 57.21875 36.46875 57.640625 36.191406 58.074219 C 35.992188 58.386719 35.796875 58.707031 35.605469 59.019531 C 35.515625 59.164062 35.390625 59.234375 35.222656 59.234375 Z M 34.121094 59.023438 C 33.929688 59.023438 33.792969 58.933594 33.714844 58.757812 C 33.335938 57.914062 33.042969 57.042969 32.832031 56.140625 C 32.800781 56.019531 32.816406 55.90625 32.878906 55.800781 C 32.945312 55.691406 33.039062 55.625 33.160156 55.59375 C 33.28125 55.566406 33.394531 55.585938 33.5 55.652344 C 33.605469 55.722656 33.671875 55.816406 33.695312 55.9375 C 33.894531 56.785156 34.171875 57.601562 34.523438 58.394531 C 34.554688 58.464844 34.566406 58.535156 34.5625 58.609375 C 34.554688 58.6875 34.53125 58.753906 34.492188 58.820312 C 34.449219 58.882812 34.398438 58.929688 34.332031 58.96875 C 34.265625 59.003906 34.195312 59.023438 34.117188 59.023438 Z M 51.625 58.378906 L 51.613281 58.378906 C 51.492188 58.375 51.386719 58.328125 51.300781 58.242188 C 51.21875 58.152344 51.175781 58.046875 51.179688 57.925781 C 51.179688 57.867188 51.179688 57.804688 51.179688 57.746094 C 51.183594 56.953125 51.0625 56.179688 50.824219 55.425781 C 50.796875 55.3125 50.8125 55.203125 50.867188 55.101562 C 50.925781 54.996094 51.011719 54.929688 51.121094 54.894531 C 51.234375 54.859375 51.34375 54.867188 51.449219 54.917969 C 51.554688 54.96875 51.628906 55.046875 51.671875 55.15625 C 51.941406 56 52.074219 56.863281 52.074219 57.75 C 52.074219 57.8125 52.074219 57.878906 52.074219 57.945312 C 52.070312 58.066406 52.027344 58.167969 51.9375 58.253906 C 51.851562 58.335938 51.75 58.378906 51.628906 58.378906 Z M 38.402344 54.929688 C 38.285156 54.929688 38.183594 54.890625 38.097656 54.808594 C 38.011719 54.722656 37.964844 54.621094 37.960938 54.496094 C 37.957031 54.375 37.996094 54.269531 38.082031 54.179688 C 38.710938 53.507812 39.390625 52.894531 40.125 52.335938 C 40.222656 52.261719 40.332031 52.234375 40.453125 52.253906 C 40.574219 52.269531 40.671875 52.328125 40.746094 52.425781 C 40.820312 52.523438 40.847656 52.632812 40.832031 52.753906 C 40.8125 52.878906 40.757812 52.976562 40.65625 53.046875 C 39.964844 53.574219 39.320312 54.15625 38.726562 54.792969 C 38.640625 54.882812 38.53125 54.929688 38.402344 54.929688 Z M 32.890625 53.832031 C 32.773438 53.835938 32.671875 53.792969 32.585938 53.710938 C 32.5 53.628906 32.453125 53.53125 32.445312 53.414062 C 32.433594 53.144531 32.425781 52.878906 32.425781 52.617188 C 32.425781 52.222656 32.441406 51.816406 32.472656 51.429688 C 32.492188 51.175781 32.519531 50.914062 32.550781 50.660156 C 32.5625 50.535156 32.617188 50.433594 32.714844 50.351562 C 32.8125 50.273438 32.921875 50.242188 33.046875 50.257812 C 33.171875 50.273438 33.269531 50.332031 33.347656 50.429688 C 33.421875 50.53125 33.449219 50.644531 33.429688 50.769531 C 33.402344 51.011719 33.378906 51.257812 33.359375 51.5 C 33.328125 51.867188 33.3125 52.242188 33.3125 52.617188 C 33.3125 52.867188 33.320312 53.117188 33.332031 53.367188 C 33.339844 53.488281 33.300781 53.59375 33.21875 53.6875 C 33.136719 53.777344 33.035156 53.828125 32.914062 53.832031 Z M 49.996094 53.378906 C 49.855469 53.378906 49.742188 53.324219 49.652344 53.214844 C 49.128906 52.558594 48.488281 52.054688 47.726562 51.703125 C 47.613281 51.652344 47.535156 51.570312 47.492188 51.453125 C 47.449219 51.339844 47.453125 51.226562 47.503906 51.113281 C 47.554688 51.003906 47.636719 50.925781 47.753906 50.882812 C 47.867188 50.839844 47.980469 50.84375 48.09375 50.890625 C 48.984375 51.300781 49.734375 51.890625 50.34375 52.65625 C 50.460938 52.800781 50.476562 52.957031 50.398438 53.128906 C 50.316406 53.296875 50.183594 53.378906 49.996094 53.378906 Z M 42.703125 51.792969 C 42.597656 51.792969 42.5 51.757812 42.417969 51.691406 C 42.335938 51.625 42.285156 51.539062 42.265625 51.433594 C 42.246094 51.328125 42.257812 51.230469 42.308594 51.136719 C 42.359375 51.042969 42.433594 50.976562 42.535156 50.9375 C 43.414062 50.5625 44.335938 50.363281 45.292969 50.335938 C 45.417969 50.332031 45.523438 50.375 45.609375 50.460938 C 45.699219 50.542969 45.746094 50.648438 45.746094 50.769531 C 45.75 50.894531 45.707031 51 45.621094 51.089844 C 45.539062 51.175781 45.433594 51.222656 45.3125 51.226562 C 44.464844 51.25 43.652344 51.425781 42.871094 51.757812 C 42.816406 51.78125 42.761719 51.792969 42.703125 51.792969 Z M 33.519531 48.53125 C 33.480469 48.53125 33.4375 48.527344 33.398438 48.515625 C 33.28125 48.484375 33.191406 48.414062 33.132812 48.308594 C 33.074219 48.199219 33.058594 48.085938 33.089844 47.96875 C 33.335938 47.089844 33.636719 46.226562 33.992188 45.386719 C 34.039062 45.273438 34.121094 45.191406 34.234375 45.144531 C 34.347656 45.101562 34.460938 45.101562 34.574219 45.148438 C 34.6875 45.195312 34.765625 45.277344 34.8125 45.390625 C 34.859375 45.503906 34.859375 45.617188 34.8125 45.730469 C 34.46875 46.539062 34.183594 47.363281 33.945312 48.207031 C 33.886719 48.421875 33.742188 48.53125 33.519531 48.53125 Z M 35.578125 43.597656 C 35.5 43.597656 35.425781 43.578125 35.359375 43.539062 C 35.289062 43.5 35.238281 43.445312 35.195312 43.378906 C 35.15625 43.3125 35.136719 43.238281 35.136719 43.160156 C 35.132812 43.078125 35.152344 43.007812 35.191406 42.9375 C 35.617188 42.167969 36.097656 41.390625 36.617188 40.625 C 36.6875 40.527344 36.78125 40.464844 36.902344 40.441406 C 37.019531 40.421875 37.132812 40.445312 37.230469 40.511719 C 37.332031 40.582031 37.394531 40.675781 37.417969 40.792969 C 37.441406 40.914062 37.417969 41.023438 37.351562 41.125 C 36.847656 41.871094 36.378906 42.625 35.96875 43.371094 C 35.882812 43.523438 35.753906 43.597656 35.578125 43.597656 Z M 38.578125 39.160156 C 38.390625 39.160156 38.257812 39.078125 38.175781 38.910156 C 38.097656 38.742188 38.113281 38.585938 38.230469 38.4375 C 38.792969 37.738281 39.386719 37.046875 40.007812 36.386719 C 40.089844 36.296875 40.195312 36.25 40.316406 36.246094 C 40.441406 36.242188 40.546875 36.28125 40.636719 36.367188 C 40.726562 36.449219 40.773438 36.554688 40.777344 36.675781 C 40.78125 36.796875 40.742188 36.90625 40.65625 36.996094 C 40.054688 37.636719 39.472656 38.3125 38.925781 38.996094 C 38.835938 39.105469 38.714844 39.160156 38.574219 39.15625 Z M 42.230469 35.246094 C 42.03125 35.246094 41.890625 35.152344 41.820312 34.964844 C 41.746094 34.777344 41.78125 34.613281 41.933594 34.476562 C 42.589844 33.871094 43.285156 33.277344 43.992188 32.714844 C 44.089844 32.632812 44.199219 32.597656 44.324219 32.609375 C 44.449219 32.625 44.550781 32.679688 44.628906 32.777344 C 44.707031 32.875 44.738281 32.988281 44.722656 33.113281 C 44.703125 33.238281 44.644531 33.335938 44.542969 33.410156 C 43.851562 33.960938 43.175781 34.539062 42.535156 35.128906 C 42.445312 35.210938 42.34375 35.25 42.226562 35.246094 Z M 46.417969 31.917969 C 46.199219 31.917969 46.058594 31.8125 45.992188 31.605469 C 45.929688 31.394531 45.988281 31.230469 46.167969 31.105469 C 46.90625 30.601562 47.679688 30.113281 48.457031 29.65625 C 48.5625 29.582031 48.679688 29.558594 48.808594 29.585938 C 48.933594 29.613281 49.03125 29.683594 49.09375 29.796875 C 49.160156 29.910156 49.171875 30.027344 49.132812 30.152344 C 49.097656 30.277344 49.019531 30.367188 48.902344 30.421875 C 48.140625 30.867188 47.390625 31.347656 46.664062 31.847656 C 46.589844 31.894531 46.507812 31.917969 46.417969 31.917969 Z M 51.039062 29.207031 C 50.804688 29.210938 50.660156 29.09375 50.605469 28.867188 C 50.550781 28.636719 50.628906 28.46875 50.839844 28.367188 C 51.640625 27.964844 52.46875 27.585938 53.300781 27.234375 C 53.414062 27.1875 53.527344 27.1875 53.640625 27.234375 C 53.753906 27.28125 53.835938 27.359375 53.882812 27.472656 C 53.929688 27.585938 53.929688 27.699219 53.882812 27.816406 C 53.835938 27.929688 53.757812 28.007812 53.644531 28.058594 C 52.832031 28.398438 52.019531 28.769531 51.234375 29.160156 C 51.171875 29.191406 51.109375 29.207031 51.039062 29.207031 Z M 84.777344 27.859375 C 84.714844 27.859375 84.65625 27.847656 84.601562 27.820312 C 83.800781 27.476562 82.964844 27.15625 82.132812 26.871094 C 82.015625 26.828125 81.933594 26.753906 81.878906 26.644531 C 81.828125 26.535156 81.820312 26.421875 81.859375 26.308594 C 81.898438 26.191406 81.972656 26.105469 82.082031 26.054688 C 82.191406 26 82.304688 25.992188 82.421875 26.027344 C 83.277344 26.324219 84.125 26.652344 84.949219 27.007812 C 85.171875 27.101562 85.261719 27.269531 85.210938 27.507812 C 85.160156 27.746094 85.015625 27.863281 84.773438 27.859375 Z M 55.976562 27.136719 C 55.867188 27.136719 55.769531 27.101562 55.6875 27.03125 C 55.605469 26.964844 55.554688 26.875 55.535156 26.765625 C 55.519531 26.660156 55.539062 26.558594 55.59375 26.464844 C 55.648438 26.371094 55.726562 26.308594 55.832031 26.273438 C 56.679688 25.980469 57.546875 25.710938 58.414062 25.472656 C 58.535156 25.441406 58.648438 25.453125 58.753906 25.515625 C 58.859375 25.574219 58.929688 25.664062 58.960938 25.78125 C 58.996094 25.902344 58.980469 26.015625 58.921875 26.121094 C 58.859375 26.226562 58.769531 26.296875 58.652344 26.328125 C 57.800781 26.5625 56.949219 26.828125 56.121094 27.113281 C 56.074219 27.128906 56.023438 27.136719 55.976562 27.136719 Z M 79.71875 26.117188 C 79.679688 26.117188 79.640625 26.109375 79.605469 26.101562 C 78.757812 25.878906 77.890625 25.679688 77.023438 25.515625 C 76.898438 25.496094 76.800781 25.433594 76.726562 25.332031 C 76.65625 25.230469 76.628906 25.117188 76.652344 24.992188 C 76.675781 24.871094 76.742188 24.773438 76.847656 24.703125 C 76.949219 24.636719 77.066406 24.613281 77.1875 24.640625 C 78.074219 24.8125 78.964844 25.011719 79.832031 25.242188 C 79.9375 25.269531 80.023438 25.328125 80.085938 25.421875 C 80.148438 25.515625 80.171875 25.617188 80.160156 25.726562 C 80.144531 25.839844 80.097656 25.929688 80.011719 26.003906 C 79.925781 26.078125 79.828125 26.117188 79.71875 26.117188 Z M 61.136719 25.714844 C 61.023438 25.710938 60.925781 25.675781 60.839844 25.597656 C 60.757812 25.519531 60.710938 25.425781 60.699219 25.3125 C 60.6875 25.199219 60.714844 25.097656 60.78125 25.007812 C 60.847656 24.914062 60.9375 24.859375 61.046875 24.835938 C 61.925781 24.652344 62.824219 24.492188 63.714844 24.367188 C 63.835938 24.347656 63.945312 24.375 64.042969 24.449219 C 64.140625 24.523438 64.199219 24.621094 64.21875 24.742188 C 64.234375 24.867188 64.207031 24.976562 64.132812 25.074219 C 64.058594 25.171875 63.960938 25.230469 63.839844 25.246094 C 62.96875 25.371094 62.089844 25.523438 61.226562 25.703125 C 61.199219 25.710938 61.167969 25.714844 61.136719 25.714844 Z M 74.464844 25.113281 C 74.445312 25.117188 74.429688 25.117188 74.410156 25.113281 C 73.539062 25.011719 72.652344 24.9375 71.769531 24.890625 C 71.648438 24.882812 71.546875 24.835938 71.464844 24.742188 C 71.382812 24.652344 71.34375 24.542969 71.351562 24.421875 C 71.355469 24.296875 71.40625 24.195312 71.496094 24.113281 C 71.585938 24.03125 71.695312 23.992188 71.816406 24 C 72.714844 24.042969 73.621094 24.125 74.511719 24.230469 C 74.632812 24.234375 74.734375 24.285156 74.816406 24.378906 C 74.898438 24.46875 74.9375 24.578125 74.929688 24.699219 C 74.921875 24.820312 74.871094 24.925781 74.78125 25.007812 C 74.6875 25.085938 74.582031 25.125 74.457031 25.117188 Z M 66.441406 24.957031 C 66.320312 24.960938 66.210938 24.921875 66.121094 24.839844 C 66.03125 24.757812 65.984375 24.652344 65.980469 24.53125 C 65.976562 24.40625 66.015625 24.300781 66.097656 24.210938 C 66.179688 24.121094 66.285156 24.074219 66.40625 24.070312 C 67.296875 24 68.210938 23.957031 69.105469 23.945312 C 69.230469 23.945312 69.335938 23.984375 69.421875 24.070312 C 69.511719 24.15625 69.554688 24.261719 69.558594 24.382812 C 69.558594 24.507812 69.515625 24.613281 69.429688 24.699219 C 69.34375 24.789062 69.242188 24.832031 69.117188 24.835938 C 68.242188 24.847656 67.351562 24.886719 66.472656 24.957031 Z M 66.441406 24.957031 " fill-opacity="1" fill-rule="nonzero"/></g><path fill="#000000" d="M 27.207031 83.195312 C 27.191406 83.195312 27.175781 83.195312 27.160156 83.195312 C 27.039062 83.183594 26.9375 83.128906 26.863281 83.035156 C 26.785156 82.9375 26.75 82.828125 26.765625 82.707031 C 26.808594 82.261719 26.859375 81.816406 26.914062 81.375 C 26.925781 81.246094 26.976562 81.144531 27.074219 81.0625 C 27.171875 80.984375 27.285156 80.953125 27.410156 80.964844 C 27.535156 80.980469 27.636719 81.039062 27.710938 81.140625 C 27.789062 81.242188 27.816406 81.355469 27.796875 81.480469 C 27.742188 81.917969 27.691406 82.359375 27.648438 82.792969 C 27.636719 82.90625 27.589844 83.003906 27.503906 83.078125 C 27.417969 83.15625 27.320312 83.195312 27.207031 83.195312 Z M 27.207031 83.195312 " fill-opacity="1" fill-rule="nonzero"/><g clip-path="url(#1e6122252a)"><path fill="#000000" d="M 26.921875 88.109375 C 26.132812 85.53125 24.71875 82.3125 23.140625 80.277344 L 27.269531 82.050781 L 31.582031 80.769531 C 29.777344 82.609375 28 85.644531 26.921875 88.109375 Z M 26.921875 88.109375 " fill-opacity="1" fill-rule="nonzero"/></g></svg>